<svg xmlns="http://www.w3.org/2000/svg" viewBox="0 0 161.79 215.6"><defs><style>.cls-1{fill:#f3cabc;}.cls-2{fill:#fff;}.cls-3{fill:#000b73;}.cls-4,.cls-5{fill:#d3dbe5;}.cls-5{opacity:0.41;}.cls-6{fill:#ff457a;}</style></defs><title>easy-to-embed-2</title><g id="Layer_2" data-name="Layer 2"><g id="Layer_1-2" data-name="Layer 1"><path class="cls-1" d="M43.18,19.82,45.05,9.43s-2-5.58,1.29-7.41S52.57,1.9,53,2.9s-6.9,18.84-6.9,18.84Z"/><path class="cls-2" d="M112.15,16.64,49.92.08a2.35,2.35,0,0,0-3,2.27V85.49a2.35,2.35,0,0,0,2.16,2.34l63,13,47.09,9.33a2.36,2.36,0,0,0,2.55-2.35V31.66A2.34,2.34,0,0,0,160,29.39Z"/><polygon class="cls-2" points="39.66 204.62 39.48 206.75 42.03 209.5 44.47 208.1 44.45 207 44.76 204.62 39.66 204.62"/><path class="cls-2" d="M14.72,205.48l-.26,2.14,2.69,2.24,2.08-1.13c.15-.09,1.15-3.5,1.15-3.5Z"/><path class="cls-3" d="M7.76,106.3c2.94,26.14,6.18,33.17,9.29,52.15,1.68,10.2-.15,24.42-2.57,46.9-.2,1.91,7.14,1.84,7.68,0,5-17,11.21-39.21,12.38-47.75,1.5-10.85.38-32,.38-32L28.24,102Z"/><path class="cls-3" d="M36.85,97.91c10.86,23.94,12.57,42.63,13.77,52.9,1.72,14.73-2.2,27.43-4.73,53.71-.15,1.63-6.54,1.64-6.58,0-.58-23.91-.65-49.4-4.39-58.87-3.17-8-10-19.33-10-19.33L17.05,104.7Z"/><polygon class="cls-3" points="28.71 56.57 39.23 28.64 41.22 17.86 47.75 22.15 44.37 52.48 37.23 71.85 28.71 56.57"/><path class="cls-2" d="M23.19,112.32c11.73,0,13.89-4.11,13.89-4.11l-.21-31S34.06,62.1,34.16,62s-4.07-4.26-3.95-2.41.23,3.67-2.9,4S19.6,61,19.6,61l1.24,4.9Z"/><polygon class="cls-3" points="41.22 17.86 40.29 22.9 47.23 26.81 47.75 22.15 41.22 17.86"/><path class="cls-3" d="M30.23,61.19c1.42,2.45,3.28,16.26,3.36,20.82a218.54,218.54,0,0,0,1.76,23.77c.63,4.19,9.37,25.94,9.37,25.94s5.53-2.59,5.53-6.45c0-4.7-11-18.39-9.9-45.11.31-7-3-17.24-4.52-19.76a15.22,15.22,0,0,0-3.1-3.78l-2.4.47Z"/><path class="cls-3" d="M24,64.74s-.26,65.39,2,72.93c0,0-21.83-3.76-23.54-9.45-6-19.9,0-56.88,7.51-63.19,6.85-5.72,8.55-6.78,8.55-6.78l2,6.11Z"/><path class="cls-3" d="M27.9,58a27.55,27.55,0,0,1,2.84,4.5,6,6,0,0,1,2.73-.73s-2.85-5.25-5.13-6.06S27.9,58,27.9,58Z"/><path class="cls-1" d="M19.35,57.19c7.45-2.72-4.93-11.82,3.54-15s11.7,9.58,10.77,12-4.28.56-4.6,2.86c0,.34.1,2.85.08,3.19-.14,2-.68,2.58-2.65,2.76h0a10.3,10.3,0,0,1-4.7-.65l-2.19-.84Z"/><path class="cls-3" d="M17.09,58.46c.76,3,1,4.12,3.95,7.25a13.89,13.89,0,0,1,2.95-1,28.15,28.15,0,0,1-3.45-4.57,7.48,7.48,0,0,1-1.19-3Z"/><path class="cls-3" d="M7.33,112l-.59,2.74S10.28,117,20.4,119v-3S10.91,114,7.33,112Z"/><polygon class="cls-3" points="44.2 109.02 42.58 112.32 45.4 113.65 46.37 110.63 44.2 109.02"/><path class="cls-3" d="M30.75,44.49c-1.21-.57-2.64-.7-2.88,0s-1.79-.25-2.77.7.4,4.92-.35,5.22-1.95-.33-2,1,2.12,1.92,2.12,1.92-.33,2.92-2.48,2.19a7.11,7.11,0,0,1-4.74-4.22c-1-2.37-1.46-6.69,2.31-9.13a9.73,9.73,0,0,1,8.73-1.12C30.65,41.57,30.75,44.49,30.75,44.49Z"/><path class="cls-3" d="M44,211.91c-2.72-.51-5-.81-4.78-3,.09-.65.29-2.13.29-2.13,1.1.81,4.78,1.05,5,.24,0,0,13.28,4.3,13.63,5.59a2.33,2.33,0,0,1,0,.59C57.76,214.5,46.67,212.41,44,211.91Z"/><path class="cls-3" d="M19.74,214.88c-1-.35-5.86-2.62-5.58-4.82.08-.66.34-2.69.34-2.69.7,1.53,4.54,1.46,4.73,1.36,0,0,6.65,4,7,5.31a2,2,0,0,1,0,.6C25.91,216,22.31,215.79,19.74,214.88Z"/><path class="cls-3" d="M46.31,85.75S27.25,70.85,20.47,65.6c-3.28-2.53-14.36,3.66-7.33,11.76C18.05,83,35.26,90.14,39.94,92c1,.38,9.24-.09,12,0V86.93Z"/><path class="cls-1" d="M77.24,90.68l-5.58-.83a10.3,10.3,0,0,0,1.41-1.67c.43-.73-.1-1.56-.78-.69a11.83,11.83,0,0,1-3.13,2L52,86.93V92c6.26-.11,15.18-.77,16.8-.32C77.71,94.17,77.24,90.68,77.24,90.68Z"/><polygon class="cls-3" points="47.33 85.96 47.33 92.06 52.78 91.98 52.78 86.93 47.33 85.96"/><path class="cls-1" d="M46.94,8.11c1.89-1.94,2.24-2.35,2.75-1.78s-2.75,4.49-2.75,4.49Z"/><polygon class="cls-4" points="112.48 36.53 61.59 24.48 61.59 19.53 112.48 31.58 112.48 36.53"/><polygon class="cls-5" points="112.48 41.48 61.58 29.43 61.59 24.48 112.48 36.53 112.48 41.48"/><polygon class="cls-4" points="112.47 46.43 61.58 34.38 61.58 29.43 112.48 41.48 112.47 46.43"/><polygon class="cls-5" points="112.47 51.38 61.58 39.33 61.58 34.38 112.47 46.43 112.47 51.38"/><polygon class="cls-4" points="112.47 56.33 61.57 44.27 61.58 39.33 112.47 51.38 112.47 56.33"/><polygon class="cls-5" points="112.46 61.27 61.57 49.22 61.57 44.27 112.47 56.33 112.46 61.27"/><polygon class="cls-4" points="112.46 66.22 61.57 54.17 61.57 49.22 112.46 61.27 112.46 66.22"/><polygon class="cls-5" points="112.46 71.17 61.56 59.12 61.57 54.17 112.46 66.22 112.46 71.17"/><polygon class="cls-4" points="112.45 76.12 61.56 64.07 61.56 59.12 112.46 71.17 112.45 76.12"/><polygon class="cls-5" points="112.45 81.07 61.56 69.02 61.56 64.07 112.45 76.12 112.45 81.07"/><polygon class="cls-4" points="112.45 86.02 61.55 73.97 61.56 69.02 112.45 81.07 112.45 86.02"/><ellipse class="cls-6" cx="132.93" cy="49.45" rx="11.94" ry="14.51" transform="translate(-0.1 98.64) rotate(-40.7)"/><ellipse class="cls-3" cx="132.94" cy="77.66" rx="11.94" ry="14.51" transform="translate(-18.49 105.47) rotate(-40.7)"/><path class="cls-2" d="M133.77,52.38l-.94-.18V48.41c0-.45,0-.81,0-1.07l-.22.17-.89.56-.47-.69,1.71-1,.77.16Z"/><path class="cls-2" d="M127.47,78.59l-.54-.11V76.3a5.36,5.36,0,0,1,0-.62l-.13.1-.52.33-.27-.4,1-.59.45.09Z"/><path class="cls-2" d="M130.83,79.25l-2.27-.44v-.42l.87-.7a5.14,5.14,0,0,0,.5-.47.71.71,0,0,0,.18-.27.73.73,0,0,0,.06-.3.59.59,0,0,0-.13-.39.71.71,0,0,0-.38-.21,1.15,1.15,0,0,0-.37,0,1.76,1.76,0,0,0-.42.18l-.29-.41a1.58,1.58,0,0,1,.54-.24,1.76,1.76,0,0,1,.56,0,1.4,1.4,0,0,1,.75.4,1,1,0,0,1,.28.72.91.91,0,0,1-.08.41,1.09,1.09,0,0,1-.25.38,4.06,4.06,0,0,1-.56.48l-.58.46v0l1.59.31Z"/><path class="cls-2" d="M133.51,78.08a2.13,2.13,0,0,1-.28,1.26.8.8,0,0,1-.86.26,1.23,1.23,0,0,1-.85-.61,2.71,2.71,0,0,1-.29-1.35,2.23,2.23,0,0,1,.28-1.27.81.81,0,0,1,.86-.25,1.19,1.19,0,0,1,.85.61A2.71,2.71,0,0,1,133.51,78.08Zm-1.73-.33a2.75,2.75,0,0,0,.14,1,.59.59,0,0,0,.45.39.37.37,0,0,0,.45-.22,2.13,2.13,0,0,0,.15-1,2.55,2.55,0,0,0-.15-1,.59.59,0,0,0-.45-.4.38.38,0,0,0-.45.21A2.37,2.37,0,0,0,131.78,77.75Z"/><path class="cls-2" d="M134,79.59a.3.3,0,0,1,.09-.25.33.33,0,0,1,.25,0,.45.45,0,0,1,.26.15.4.4,0,0,1,.08.27.29.29,0,0,1-.08.24.31.31,0,0,1-.26.05.38.38,0,0,1-.25-.15A.4.4,0,0,1,134,79.59Z"/><path class="cls-2" d="M137.47,78.86a2.13,2.13,0,0,1-.28,1.26.79.79,0,0,1-.85.26,1.22,1.22,0,0,1-.85-.61,2.71,2.71,0,0,1-.29-1.35,2.15,2.15,0,0,1,.28-1.27.82.82,0,0,1,.86-.26,1.25,1.25,0,0,1,.85.62A2.71,2.71,0,0,1,137.47,78.86Zm-1.72-.34a2.64,2.64,0,0,0,.14,1,.58.58,0,0,0,.45.38.39.39,0,0,0,.45-.21,2.33,2.33,0,0,0,.14-.95,2.89,2.89,0,0,0-.14-1,.62.62,0,0,0-.45-.39.38.38,0,0,0-.45.21A2.19,2.19,0,0,0,135.75,78.52Z"/><path class="cls-2" d="M140.15,79.39a2.1,2.1,0,0,1-.28,1.25.79.79,0,0,1-.86.26,1.17,1.17,0,0,1-.84-.61,2.6,2.6,0,0,1-.29-1.35,2.09,2.09,0,0,1,.28-1.26.79.79,0,0,1,.85-.26,1.19,1.19,0,0,1,.85.61A2.67,2.67,0,0,1,140.15,79.39Zm-1.73-.34a2.75,2.75,0,0,0,.14,1,.62.62,0,0,0,.45.39.39.39,0,0,0,.46-.21,2.35,2.35,0,0,0,.14-1,2.82,2.82,0,0,0-.14-1,.62.62,0,0,0-.46-.39.39.39,0,0,0-.45.21A2.35,2.35,0,0,0,138.42,79.05Z"/></g></g></svg>