<svg xmlns="http://www.w3.org/2000/svg" viewBox="0 0 147.17 178.43"><defs><style>.cls-1{fill:#020b73;}.cls-2{fill:#683c11;}.cls-3{fill:#f2457a;}.cls-4{fill:#fff;}.cls-5{fill:#f1c8ba;}</style></defs><title>partner-focused-img</title><g id="Layer_2" data-name="Layer 2"><g id="Layer_1-2" data-name="Layer 1"><path class="cls-1" d="M105.53,59.05s2.69-24.36,3.7-33c.48-4.17,12.81-7.81,13.7,3,.62,7.57-6.39,25.09-8.36,29.79-.4,1-6.6,6.64-8.52,8.71L102.38,64Z"/><path class="cls-2" d="M87.22,85l3.35-4.63a10.35,10.35,0,0,1-2.21-.17c-.84-.2-1.07-1.17,0-1.05a12.14,12.14,0,0,0,3.66-.86L102.38,64l3.67,3.58C101.54,72,94.74,78,93.92,79.51,89.41,87.76,87.22,85,87.22,85Z"/><polygon class="cls-3" points="104.96 59.93 109.38 64.25 105.47 68.14 101.81 64.57 104.96 59.93"/><polygon class="cls-4" points="107 167.18 107.18 169.34 104.6 172.13 102.13 170.7 102.15 169.59 101.83 167.18 107 167.18"/><path class="cls-4" d="M132.26,168.05l.26,2.17-2.72,2.27-2.11-1.15c-.15-.09-1.16-3.54-1.16-3.54Z"/><path class="cls-1" d="M139.31,67.59c-3,26.47-6.26,33.59-9.41,52.82-1.7,10.34.15,24.74,2.6,47.5.21,1.94-7.23,1.87-7.78,0-5-17.2-11.35-39.71-12.54-48.36-1.51-11-.38-32.44-.38-32.44l6.77-23.89Z"/><path class="cls-1" d="M109.85,59.08c-11,24.26-12.74,43.19-14,53.59-1.74,14.92,2.24,27.79,4.79,54.4.16,1.66,6.63,1.67,6.67,0,.59-24.21.66-50,4.45-59.63C115,99.32,122,87.87,122,87.87L129.9,66Z"/><path class="cls-4" d="M123.68,73.68c-11.88,0-14.07-4.16-14.07-4.16l.21-31.45s2.84-15.26,2.75-15.37,4.12-4.31,4-2.43-.23,3.72,3,4,7.8-2.63,7.8-2.63l-1.25,5Z"/><path class="cls-3" d="M116.54,21.89c-1.43,2.48-3.32,16.47-3.39,21.09a220.18,220.18,0,0,1-1.79,24.08c-.63,4.24-9.49,26.27-9.49,26.27s-5.6-2.62-5.6-6.54c0-4.75,11.19-18.62,10-45.69-.3-7.13,3-17.46,4.59-20A15.31,15.31,0,0,1,114,17.26l2.43.47Z"/><path class="cls-3" d="M122.87,25.48s.26,66.24-2,73.88c0,0,22.12-3.81,23.85-9.57,6.06-20.17,0-57.62-7.61-64-6.94-5.8-8.66-6.88-8.66-6.88l-2.08,6.2Z"/><path class="cls-3" d="M118.91,18.6A27.71,27.71,0,0,0,116,23.16a6.26,6.26,0,0,0-2.77-.74s2.88-5.32,5.19-6.14S118.91,18.6,118.91,18.6Z"/><path class="cls-2" d="M127.42,18.37c-8.26-3,5.47-13.1-3.92-16.65s-13,10.63-11.94,13.32,4.75.63,5.11,3.17c0,.38-.12,3.17-.09,3.53.15,2.19.75,2.87,2.93,3.07h0a11.71,11.71,0,0,0,5.21-.72l2.42-.94Z"/><path class="cls-3" d="M129.86,19.13c-.77,3-1.06,4.16-4,7.34a14,14,0,0,0-3-1,28.5,28.5,0,0,0,3.49-4.62,7.77,7.77,0,0,0,1.21-3Z"/><path class="cls-3" d="M139.75,73.33l.6,2.78s-3.59,2.28-13.85,4.31v-3S136.12,75.43,139.75,73.33Z"/><polygon class="cls-3" points="102.4 70.34 104.04 73.68 101.18 75.02 100.2 71.97 102.4 70.34"/><path class="cls-1" d="M102.63,174.56c2.75-.52,5.12-.82,4.84-3.05-.08-.67-.29-2.17-.29-2.17-1.12.82-4.85,1.07-5,.25,0,0-13.46,4.36-13.82,5.66a2.42,2.42,0,0,0,0,.6C88.66,177.19,99.89,175.07,102.63,174.56Z"/><path class="cls-1" d="M127.18,177.57c1-.35,5.93-2.65,5.65-4.88-.09-.67-.34-2.73-.34-2.73-.72,1.55-4.61,1.48-4.8,1.38,0,0-6.74,4.08-7.1,5.38a2,2,0,0,0,0,.6C120.92,178.66,124.57,178.49,127.18,177.57Z"/><path class="cls-3" d="M100.26,46.76s19.3-15.09,26.18-20.4c3.31-2.57,14.54,3.71,7.42,11.9-5,5.73-22.41,13-27.15,14.84-1,.38-9.36-.09-12.18,0V48Z"/><path class="cls-2" d="M68.93,51.76l5.65-.84a10.67,10.67,0,0,1-1.42-1.69c-.44-.74.09-1.59.79-.7a11.92,11.92,0,0,0,3.17,2L94.53,48v5.13c-6.35-.11-15.38-.79-17-.33C68.45,55.29,68.93,51.76,68.93,51.76Z"/><polygon class="cls-3" points="99.23 46.98 99.23 53.15 93.71 53.07 93.71 47.96 99.23 46.98"/><path class="cls-1" d="M41.64,59.18S39,34.82,38,26.19c-.49-4.16-12.82-7.81-13.71,3C23.62,36.76,30.63,54.28,32.6,59c.4,1,6.6,6.64,8.52,8.72l3.67-3.59Z"/><path class="cls-5" d="M60,85.08,56.6,80.45a10.92,10.92,0,0,0,2.22-.16c.83-.21,1.06-1.18-.06-1.05a12.14,12.14,0,0,1-3.66-.86L44.79,64.11,41.12,67.7c4.51,4.46,11.31,10.45,12.13,12C57.76,87.89,60,85.08,60,85.08Z"/><polygon class="cls-1" points="42.21 60.07 37.79 64.38 41.7 68.27 45.36 64.7 42.21 60.07"/><polygon class="cls-4" points="40.17 167.31 39.99 169.47 42.58 172.26 45.04 170.83 45.02 169.72 45.34 167.31 40.17 167.31"/><path class="cls-4" d="M14.91,168.19l-.26,2.16,2.72,2.27,2.11-1.15c.15-.08,1.17-3.54,1.17-3.54Z"/><path class="cls-1" d="M7.86,67.72c3,26.47,6.26,33.6,9.41,52.82,1.7,10.34-.15,24.74-2.6,47.51-.21,1.93,7.23,1.86,7.78,0,5-17.21,11.35-39.72,12.54-48.37,1.51-11,.38-32.44.38-32.44L28.6,63.36Z"/><path class="cls-1" d="M37.33,59.21c11,24.26,12.73,43.19,14,53.6C53,127.73,49,140.59,46.49,167.2c-.16,1.66-6.63,1.67-6.67,0-.59-24.21-.66-50-4.45-59.63C32.16,99.45,25.2,88,25.2,88L17.27,66.09Z"/><path class="cls-4" d="M23.49,73.81c11.88,0,14.07-4.16,14.07-4.16L37.35,38.2S34.51,22.94,34.6,22.84s-4.12-4.31-4-2.44.23,3.72-2.95,4-7.8-2.63-7.8-2.63l1.25,5Z"/><path class="cls-1" d="M30.63,22C32.06,24.51,34,38.49,34,43.11a220.18,220.18,0,0,0,1.79,24.08c.64,4.24,9.49,26.27,9.49,26.27s5.6-2.61,5.6-6.53c0-4.76-11.19-18.63-10-45.69.31-7.14-3-17.46-4.59-20a15.38,15.38,0,0,0-3.13-3.83l-2.44.48Z"/><path class="cls-1" d="M24.3,25.61s-.26,66.24,2,73.88c0,0-22.12-3.8-23.85-9.57-6.06-20.16,0-57.62,7.61-64A110.21,110.21,0,0,1,18.75,19l2.08,6.19Z"/><path class="cls-1" d="M28.26,18.74a27.5,27.5,0,0,1,2.87,4.55,6.26,6.26,0,0,1,2.77-.74S31,17.24,28.71,16.42,28.26,18.74,28.26,18.74Z"/><path class="cls-5" d="M19.75,18.5c8.26-3-5.47-13.1,3.92-16.64s13,10.62,11.94,13.31-4.75.63-5.11,3.17c-.05.39.12,3.17.09,3.54-.15,2.18-.74,2.86-2.93,3.06h0a11.43,11.43,0,0,1-5.21-.72L20,23.29Z"/><path class="cls-1" d="M17.31,19.26c.78,3,1.06,4.17,4,7.34a14,14,0,0,1,3-1A28.5,28.5,0,0,1,20.81,21a7.77,7.77,0,0,1-1.21-3Z"/><path class="cls-1" d="M7.42,73.47l-.6,2.78s3.59,2.27,13.85,4.31V77.5S11.05,75.56,7.42,73.47Z"/><polygon class="cls-1" points="44.77 70.47 43.13 73.81 45.99 75.16 46.97 72.1 44.77 70.47"/><path class="cls-1" d="M32.38,4.43c-1.34-.63-2.92-.77-3.19,0s-2-.27-3.07.77.45,5.46-.39,5.79-2.16-.37-2.2,1.11,2.35,2.12,2.35,2.12-.36,3.24-2.75,2.44A8,8,0,0,1,17.88,12c-1.13-2.62-1.61-7.4,2.57-10.11A10.78,10.78,0,0,1,30.12.62C32.26,1.19,32.38,4.43,32.38,4.43Z"/><path class="cls-1" d="M44.54,174.69c-2.75-.51-5.12-.82-4.84-3.05.08-.66.29-2.17.29-2.17,1.12.83,4.85,1.07,5,.25,0,0,13.46,4.36,13.82,5.66a2.42,2.42,0,0,1,0,.6C58.51,177.32,47.28,175.2,44.54,174.69Z"/><path class="cls-1" d="M20,177.71c-1-.36-5.93-2.66-5.65-4.89.09-.67.34-2.73.34-2.73.72,1.55,4.61,1.49,4.8,1.38,0,0,6.74,4.08,7.1,5.38a2.08,2.08,0,0,1,0,.61C26.25,178.79,22.6,178.62,20,177.71Z"/><path class="cls-1" d="M46.91,46.9S27.61,31.8,20.73,26.49C17.42,23.93,6.19,30.2,13.31,38.4c5,5.72,22.41,13,27.15,14.83,1,.38,9.36-.09,12.18,0V48.09Z"/><path class="cls-5" d="M78.24,51.9l-5.65-.84A10.44,10.44,0,0,0,74,49.36c.44-.74-.09-1.58-.79-.7a11.92,11.92,0,0,1-3.17,2L52.64,48.09v5.13c6.35-.11,15.38-.78,17-.32C78.72,55.43,78.24,51.9,78.24,51.9Z"/><polygon class="cls-1" points="47.95 47.11 47.95 53.28 53.46 53.2 53.46 48.09 47.95 47.11"/></g></g></svg>