<svg xmlns="http://www.w3.org/2000/svg" xmlns:xlink="http://www.w3.org/1999/xlink" viewBox="0 0 863.86 542"><defs><style>.cls-1{fill:#d31c59;}.cls-2{fill:#3f51b7;}.cls-3{isolation:isolate;}.cls-4{fill:#f1f3fa;opacity:0.1;}.cls-5{fill:#fff;}.cls-6{fill:#683c11;}.cls-7{fill:#000b73;}.cls-8{fill:#dae2eb;}.cls-9{fill:#edf4fc;}.cls-10{fill:#d3dbe5;}.cls-11{fill:#dbdde3;opacity:0.5;mix-blend-mode:multiply;}.cls-12{fill:#f3cabc;}.cls-13{clip-path:url(#clip-path);}.cls-14{fill:#ff457a;}.cls-15{fill:#ff71a0;}.cls-16{opacity:0.33;}.cls-17,.cls-18,.cls-27{fill:none;stroke:#d3dbe5;stroke-miterlimit:10;}.cls-17{stroke-width:0.74px;}.cls-18{stroke-width:0.76px;}.cls-19{fill:#0f25a5;}.cls-20{fill:#ededed;}.cls-21{fill:#ff8f33;}.cls-22{clip-path:url(#clip-path-2);}.cls-23{fill:#000c59;}.cls-24{fill:#ff3d2b;}.cls-25{fill:#a3a9b2;}.cls-26{opacity:0.42;}.cls-27{stroke-width:0.28px;}.cls-28{fill:#0096ff;}.cls-29{fill:#f2457a;}.cls-30{fill:#f38d33;}.cls-31{fill:#000486;}</style><clipPath id="clip-path"><circle id="_Ellipse_" data-name="&lt;Ellipse&gt;" class="cls-1" cx="436.3" cy="301.67" r="36.04"/></clipPath><clipPath id="clip-path-2"><circle id="_Ellipse_2" data-name="&lt;Ellipse&gt;" class="cls-2" cx="601.62" cy="176.99" r="36.04"/></clipPath></defs><title>bi-and-analytics-banner-img</title><g class="cls-3"><g id="Layer_2" data-name="Layer 2"><g id="Layer_1-2" data-name="Layer 1"><path class="cls-4" d="M857.3,501.9H458.49a6.56,6.56,0,0,0-6.56,6.56h0a6.56,6.56,0,0,0,6.56,6.56h0a47,47,0,0,1,18.66,3.87l13.73,6a46.75,46.75,0,0,0,10.8,3.2l19.53,3.32a46.8,46.8,0,0,0,8.26.66h81.9a127.68,127.68,0,0,1,27.83,3.08l17,3.82a127.51,127.51,0,0,0,43.2,2.15l67.48-8.19a139.81,139.81,0,0,1,19.52-.86,47.11,47.11,0,0,0,17.93-3.22l27-10.55a47,47,0,0,1,17.1-3.23h8.85a6.55,6.55,0,0,0,6.56-6.56h0A6.56,6.56,0,0,0,857.3,501.9Z"/><path class="cls-4" d="M6.56,501.9H323.08a6.56,6.56,0,0,1,6.56,6.56h0a6.56,6.56,0,0,1-6.56,6.56h-8.85c-11.8,0-60.68,18.25-75.59,17.85,2.45,0-11.76-.33-35.56.14-55.58,1.09-125.4-.22-133.8-1.65L49.75,528a46.75,46.75,0,0,1-10.8-3.2l-13.73-6A47,47,0,0,0,6.56,515h0A6.56,6.56,0,0,1,0,508.46H0A6.56,6.56,0,0,1,6.56,501.9Z"/><polygon class="cls-5" points="84.92 502.71 84.64 506.07 88.66 510.4 92.5 508.19 92.47 506.46 92.96 502.71 84.92 502.71"/><path class="cls-5" d="M45.62,504.07l-.4,3.37L49.45,511l3.28-1.79c.23-.13,1.81-5.51,1.81-5.51Z"/><path class="cls-6" d="M87.38,208.39,90.32,192s-3.14-8.8,2-11.68,9.82-.19,10.49,1.39S92,211.41,92,211.41Z"/><path class="cls-7" d="M34.65,347.77C39.28,389,44.39,400,49.3,430c2.63,16.08-.25,38.48-4.06,73.9-.32,3,11.26,2.91,12.11,0,7.83-26.76,17.66-61.79,19.51-75.24,2.35-17.11.59-50.48.59-50.48L66.92,341Z"/><path class="cls-7" d="M80.49,334.53c17.12,37.74,19.82,67.19,21.71,83.38,2.71,23.21-3.48,43.22-7.45,84.63-.25,2.58-10.31,2.59-10.38,0-.91-37.67-1-77.84-6.92-92.77-5-12.63-15.83-30.45-15.83-30.45L49.3,345.23Z"/><polygon class="cls-7" points="67.66 269.38 84.25 225.38 87.38 208.39 97.67 215.15 92.35 262.94 81.09 293.46 67.66 269.38"/><path class="cls-5" d="M59,357.24c18.49,0,21.9-6.47,21.9-6.47l-.33-48.92s-4.42-23.74-4.28-23.91-6.41-6.71-6.21-3.79.36,5.78-4.58,6.28-12.14-4.11-12.14-4.11l2,7.72Z"/><polygon class="cls-7" points="87.38 208.39 85.92 216.32 96.85 222.49 97.67 215.15 87.38 208.39"/><path class="cls-7" d="M70.07,276.67c2.23,3.87,5.17,25.63,5.28,32.81s.93,25.17,2.78,37.46c1,6.6,14.77,40.88,14.77,40.88s8.72-4.08,8.71-10.17c0-7.4-17.41-29-15.59-71.09.48-11.1-4.72-27.16-7.13-31.14A24,24,0,0,0,74,269.47l-3.78.74Z"/><path class="cls-7" d="M60.23,282.26s-.41,103.05,3.16,114.93c0,0-34.42-5.91-37.11-14.88-9.42-31.37-.07-89.65,11.85-99.59C48.92,273.7,51.59,272,51.59,272l3.24,9.64Z"/><path class="cls-7" d="M66.39,271.56c3.85,5.43,4.47,7.09,4.47,7.09a9.55,9.55,0,0,1,4.31-1.15s-4.49-8.28-8.08-9.55S66.39,271.56,66.39,271.56Z"/><path class="cls-6" d="M52.92,270.37c11.74-4.28-7.78-18.64,5.58-23.68s18.44,15.11,17,18.94-6.75.89-7.26,4.51c-.07.55.17,4.5.13,5-.22,3.12-1.06,4.08-4.17,4.37h0a16.42,16.42,0,0,1-7.41-1l-3.44-1.33Z"/><path class="cls-7" d="M49.35,272.37c1.21,4.71,1.65,6.48,6.23,11.42,0,0,3.78-1.63,4.65-1.53a45.29,45.29,0,0,1-5.44-7.2,11.9,11.9,0,0,1-1.87-4.69Z"/><path class="cls-7" d="M34,356.71,33,361s5.58,3.54,21.53,6.71V363S39.61,360,34,356.71Z"/><polygon class="cls-7" points="92.08 352.05 89.52 357.24 93.97 359.34 95.5 354.58 92.08 352.05"/><path class="cls-7" d="M70.88,250.35c-1.9-.9-4.15-1.1-4.53,0s-2.82-.39-4.37,1.1.63,7.76-.55,8.23-3.07-.52-3.13,1.58,3.34,3,3.34,3-.51,4.61-3.91,3.46a11.29,11.29,0,0,1-7.46-6.66c-1.62-3.73-2.3-10.53,3.64-14.39s10.7-2.58,13.75-1.76S70.88,250.35,70.88,250.35Z"/><path class="cls-6" d="M94.23,189.55c3-3.05,3.52-3.69,4.33-2.8s-4.33,7.08-4.33,7.08Z"/><path class="cls-7" d="M91.72,514.19c-4.28-.8-8-1.28-7.53-4.75.13-1,.45-3.37.45-3.37,1.74,1.28,7.54,1.66,7.83.39,0,0,20.93,6.78,21.49,8.8a3.7,3.7,0,0,1,0,.94C113.44,518.28,96,515,91.72,514.19Z"/><path class="cls-7" d="M53.53,518.88c-1.57-.55-9.23-4.13-8.79-7.6l.53-4.25c1.11,2.41,7.17,2.31,7.46,2.15,0,0,10.48,6.35,11.05,8.38a4.16,4.16,0,0,1,0,.93C63.26,520.57,57.59,520.31,53.53,518.88Z"/><path class="cls-8" d="M201.79,451.93a30,30,0,0,0-2.37-4.88s-18-32.1-24.08-41.77c-3-4.68-3.69-11.21-5.64-17.32a65.45,65.45,0,0,0-6.12-13.64c-1.48-2.05-.43,9.11,2.11,28.51s18.64,26.32,32.37,44.22l1.76,5,8.53,43.39h2.26S202.64,454.32,201.79,451.93Z"/><path class="cls-7" d="M253,328.59s-15.27,23.93-22.05,28.35-8.14,43-5,52.07,5.31,86.4,5.31,86.4h2s-2.55-80.68-4.08-86.4.17-7.05,2.38-9,7.4-28.67,10.14-33.55S253,339,253,339Z"/><path class="cls-8" d="M156.05,323.8s20.48,19.65,28.11,22.35,18.05,39.86,17.11,49.43S212.59,501.9,212.59,501.9l-2,.48s-12.66-100.11-12.53-106-1.82-6.81-4.43-8.22-14-26.12-17.77-30.22-17.37-24-17.37-24Z"/><path class="cls-8" d="M223.35,495.41S217,362.34,214.75,350.5s.91-17.29,0-21.64-2.75-45.66-4.11-53S187.28,230,184.23,223.54s-6.11-2.61-6.28,1,8.25,25.36,13.06,44.11c3.3,12.84,4.42,49.17,11.71,64.66,2.12,4.52,7.46,11.64,8.64,18.26s8.9,143.81,8.9,143.81Z"/><polygon class="cls-8" points="247.19 516.88 200.65 516.88 195.67 467.29 252.97 467.29 247.19 516.88"/><path class="cls-8" d="M210.75,331.22s5.73-137.69,9.92-147.86,17.25-36,29.06-43.74,32.17-32.95,30.78-27.26c-5,20.53-11.66,30.05-21.14,41.87s-19.74,20.83-23.63,23.47-12.09,5.63-12.62,8.91c-9.14,56.69-9.33,161.92-9.33,161.92Z"/><path class="cls-8" d="M259,235.27c-2.46,15.67-13.84,44.48-19.17,58.64s-11.84,17.6-16.2,25.63-9.47,47-9.47,47l-1.71-9.27s4.75-35.34,6.75-40.65.56-17.32,2.73-25.13,18.38-31.6,22.81-39.07,11.79-23.9,14.2-25.72S259,235.27,259,235.27Z"/><path class="cls-8" d="M195.55,121.39c-.19,10.77,4,31.35,6,41.44s5.85,13.15,7.83,19,8.33,36.8,8.33,36.8l1.39-3.74s-5.94-28.72-6.66-32.5,1.89-13.64,1.36-19.11-8.59-23.28-10.68-28.79-5.08-17.35-6.49-18.85S195.55,121.39,195.55,121.39Z"/><rect class="cls-9" x="299.3" y="95.85" width="457.56" height="315.83"/><rect class="cls-5" x="334.25" y="113.24" width="401.64" height="133.48"/><rect class="cls-7" x="300.82" y="213.35" width="2.82" height="33.37"/><path class="cls-5" d="M592,195.59a26.44,26.44,0,0,0,5.3.54h14.27a1.44,1.44,0,0,0,0-2.87H597.3a24.21,24.21,0,0,1-4.9-.52Z"/><circle class="cls-7" cx="317.73" cy="230.03" r="3.12"/><path class="cls-10" d="M320.84,196.66a3.12,3.12,0,1,0-3.11,3.12A3.11,3.11,0,0,0,320.84,196.66Z"/><path class="cls-10" d="M320.84,163.29a3.12,3.12,0,1,0-3.11,3.12A3.11,3.11,0,0,0,320.84,163.29Z"/><path class="cls-10" d="M320.84,129.92a3.12,3.12,0,1,0-3.11,3.12A3.11,3.11,0,0,0,320.84,129.92Z"/><polygon class="cls-11" points="514.26 286.55 298.49 254.49 300.82 411.68 497.14 411.68 514.26 286.55"/><rect class="cls-5" x="218.7" y="75.72" width="133.48" height="401.89" transform="translate(-30.17 518.35) rotate(-81.55)"/><path class="cls-5" d="M541.39,315.12c8.37,2.32,8.16,16.13,8.16,16.13s2.48-1.5,4-2.69a11.46,11.46,0,0,0,4.27-6.19c2.1-6.11-1.13-17.76-3.59-18.7S541.39,315.12,541.39,315.12Z"/><path class="cls-7" d="M505.83,465.11s13.67,33.31,13.9,34.43a3.1,3.1,0,0,1-.26,2l-5.53,3.25-1.68-3.07L492,468.46Z"/><path class="cls-7" d="M513,509.42c4.29-.81,8.67-2.27,8.23-5.74a26,26,0,0,0-1.5-4.14c-1.12,2.41-7.18,3.42-7.47,2.15,0,0-18.65,6.49-19.21,8.51a3.71,3.71,0,0,0,0,.94C493.57,513.22,508.75,510.21,513,509.42Z"/><path class="cls-7" d="M545.73,388.87c-2.8,17.52-38.58,36.42-41.82,49.46-2.78,11.19,1.92,26.78,1.92,26.78.15,1.43-12.93,5.21-13.87,3.35,0,0-12.86-24.85-12.85-36.31,0-17.39,21.77-39,31-49,3.09-3.36,11.85-13.5,11.85-13.5S550.32,360.19,545.73,388.87Z"/><path class="cls-7" d="M541.78,466s5.33,33.39,5.55,34.51a3.06,3.06,0,0,1-.25,2l-3.48,2.27-3.73-2.1-11.08-33.08Z"/><path class="cls-7" d="M539.07,512.37c1.57-.56,9.23-4.14,8.79-7.61-.12-1-.53-4.24-.53-4.24-1.11,2.41-7.16,2.31-7.46,2.14,0,0-7.7,6.24-8.26,8.26a3.71,3.71,0,0,0,0,.94C532.12,513.94,535,513.8,539.07,512.37Z"/><path class="cls-7" d="M567.65,385.25c-2.8,17.52-20.43,43.58-23.66,56.63-2.78,11.18-2.21,24.13-2.21,24.13.15,1.44-12,5.42-13,3.57,0,0-9.62-22.42-9.61-33.89,0-17.39,12.55-39.21,21.77-49.24,3.1-3.37,10.68-16.8,10.68-16.8S572.24,356.57,567.65,385.25Z"/><path class="cls-5" d="M522,369.65c11.13-15.41,2-39.24-.37-62.07-1.79-17.05,30.44-26,44.39,2.78s1.67,74.89,1.67,74.89l-40.07-2.38Z"/><path class="cls-12" d="M529.19,288.62c4.4,2.71,0,5.72,0,5.72s-.35,7.1,10.75,4.33c5-1.26,6.36-5.54,3.51-6.68s-4.08-8.85-9-15.61-14.18-11.52-15.8,1.15S525.94,286.62,529.19,288.62Z"/><path class="cls-7" d="M521.52,271.93c-8.68-.71-11.66.68-3,2.6s10.86,5.89,12.78,5.15,4.24-.56,3.9,1.93-2,2.05-2,2.05a3.36,3.36,0,0,0,3,3.09c2.87.32,3.67,0,3.67,0a17.15,17.15,0,0,0-1.18-9.67C536.54,272.55,530.46,272.67,521.52,271.93Z"/><path class="cls-7" d="M519.6,271.76a66.47,66.47,0,0,0,11.54,6c7,3,8.2.79,8.2.79s-.47-6.26-4.72-8.51C525.2,265,519.6,271.76,519.6,271.76Z"/><path class="cls-7" d="M524.57,274.67s-10-2.43-11.84-3.27a29.23,29.23,0,0,1-6.08-3.23c-.82-.56,2.29-1.57,4.45-.53a54.62,54.62,0,0,0,9.73,3.26Z"/><path class="cls-7" d="M526.75,296c-4,4.89,2.79,33.28,3.88,40.32,2.13,13.71-1.66,23.36-3.45,19.4,0,0-1.66,9.86-5.66,14.46l5.72,18.8h39.64s5.77-21.21,5.76-32.58c0,0-5.2,6.8-16.19,4.33s-19.22-56-1.1-63.67l-1.29-.91s-3.92.51-7.74,7.47-4.5,22.91-3,32.07l2.12,13.58-11.75-1.35a43.79,43.79,0,0,0-1-12.4c-.66-3-4.94-26.05-5-30.12s-1.06-8.08.87-10.69Z"/><path class="cls-12" d="M475.33,365.84c-3.47-.42-5.33-.36-5.71,0s.28,1.45,2.48,1.79-3.6,3.71-5.39,3.44-4,1.34,0,2.21,9.85.36,12.4-2.55,32.8-14.84,42.65-21.62c4.44-3.05,19.66-12.31,27.79-17.86,7.86-5.36,5.42-13.21,1.27-21.77a9.5,9.5,0,0,0-.6-1.06c-1.69-2.45-25.71,25-35,32.54S475.33,365.84,475.33,365.84Z"/><path class="cls-12" d="M522.65,301.1S508,314,501.85,315.26c-4.52.95-13.37-16.25-13.11-18.67s1.19-4.33,1.31-7.26-2.62-4.87-2.62-4.87l-.67,4.52c-.17,1.15-.7,2.26-2.1,1.42s-4.66-3.38-5-2.5c-.63,1.67,2.27,2.31,2.79,6.78a5.48,5.48,0,0,0,1.52,3.07s3.61,27,13.46,29.54S525,316.83,525,316.83Z"/><path class="cls-7" d="M95.41,315.37s-30-23.48-40.74-31.75c-5.15-4-22.62,5.77-11.55,18.52,7.75,8.92,34.88,20.16,42.24,23.08,1.51.6,14.56-.14,19,0v-8Z"/><path class="cls-6" d="M144.15,323.15l-8.8-1.31a16.62,16.62,0,0,0,2.22-2.64c.68-1.14-.15-2.46-1.23-1.08s-4.93,3.14-4.93,3.14l-27.09-4v8c9.88-.17,23.93-1.22,26.49-.51C144.89,328.64,144.15,323.15,144.15,323.15Z"/><polygon class="cls-7" points="97.01 315.7 97.01 325.31 105.6 325.19 105.6 317.23 97.01 315.7"/><circle id="_Ellipse_3" data-name="&lt;Ellipse&gt;" class="cls-1" cx="436.3" cy="301.67" r="36.04"/><g class="cls-13"><path class="cls-14" d="M436.3,262.49v40.58l40.25,13.38,5.55-21.93s.43-17.08.32-17.72S456,263.34,456,263.34l-17.83-1.49Z"/><path class="cls-15" d="M436.3,303.07l-13.68,36.21,33.32,2.52,7.37-10.22s2.72-6.73,3.36-7.69,4.51-9.22,4.51-9.22Z"/><polygon class="cls-14" points="436.3 303.06 382.26 291.69 395.07 337.71 414.29 344.87 424.02 335.56 436.3 303.06"/><polygon class="cls-15" points="436.3 303.06 413.97 262.38 430.15 260.3 438.21 261.85 436.3 265.63 436.3 303.06"/></g><circle class="cls-5" cx="436.3" cy="301.67" r="14.78"/><path class="cls-10" d="M382.49,336.27h-.11a.77.77,0,0,1-.65-.85l11.53-84.3a.75.75,0,0,1,.85-.64.74.74,0,0,1,.64.84l-11.52,84.3A.75.75,0,0,1,382.49,336.27Z"/><path class="cls-10" d="M195.55,308.2h-.12a.75.75,0,0,1-.64-.85L206.32,223a.75.75,0,0,1,1.49.21l-11.53,84.3A.76.76,0,0,1,195.55,308.2Z"/><g class="cls-16"><line class="cls-17" x1="106.35" y1="209.64" x2="196.79" y2="222.87"/><line class="cls-17" x1="104.69" y1="220.99" x2="195.13" y2="234.21"/><line class="cls-17" x1="103.03" y1="232.33" x2="193.47" y2="245.56"/><line class="cls-17" x1="101.37" y1="243.68" x2="191.81" y2="256.9"/><line class="cls-17" x1="99.72" y1="255.02" x2="190.15" y2="268.25"/><line class="cls-17" x1="98.06" y1="266.37" x2="188.5" y2="279.59"/><line class="cls-17" x1="96.4" y1="277.71" x2="186.84" y2="290.94"/><line class="cls-17" x1="94.74" y1="289.06" x2="185.18" y2="302.28"/></g><g class="cls-16"><line class="cls-18" x1="296.78" y1="237.33" x2="387.22" y2="250.56"/><line class="cls-18" x1="295.03" y1="249.26" x2="385.47" y2="262.48"/><line class="cls-18" x1="293.29" y1="261.18" x2="383.73" y2="274.41"/><line class="cls-18" x1="291.54" y1="273.11" x2="381.98" y2="286.33"/><line class="cls-18" x1="289.8" y1="285.03" x2="380.24" y2="298.26"/><line class="cls-18" x1="288.06" y1="296.96" x2="378.5" y2="310.19"/><line class="cls-18" x1="286.31" y1="308.89" x2="376.75" y2="322.11"/><line class="cls-18" x1="284.57" y1="320.81" x2="375.01" y2="334.04"/></g><rect class="cls-19" x="288.83" y="319.51" width="5.65" height="3.65" transform="translate(48.37 -38.01) rotate(8.13)"/><rect class="cls-19" x="290.34" y="301.66" width="5.65" height="18.33" transform="translate(46.89 -38.33) rotate(8.13)"/><rect class="cls-20" x="292.23" y="293.39" width="5.65" height="8.4" transform="translate(45.04 -38.73) rotate(8.13)"/><rect class="cls-19" x="297.01" y="322.52" width="5.65" height="1.82" transform="translate(48.74 -39.15) rotate(8.13)"/><rect class="cls-19" x="297.46" y="318" width="5.65" height="4.55" transform="translate(48.3 -39.24) rotate(8.13)"/><rect class="cls-19" x="305.46" y="321.7" width="5.65" height="3.83" transform="translate(48.86 -40.34) rotate(8.13)"/><rect class="cls-19" x="307.97" y="290.16" width="5.65" height="31.73" transform="translate(46.39 -40.87) rotate(8.13)"/><rect class="cls-20" x="311.08" y="278.18" width="5.65" height="12.2" transform="translate(43.35 -41.53) rotate(8.13)"/><rect class="cls-19" x="313.62" y="324.89" width="5.65" height="1.82" transform="matrix(0.99, 0.14, -0.14, 0.99, 49.25, -41.47)"/><rect class="cls-19" x="314.45" y="315.16" width="5.65" height="9.79" transform="matrix(0.99, 0.14, -0.14, 0.99, 48.44, -41.64)"/><rect class="cls-21" x="315.44" y="311" width="5.65" height="4.23" transform="matrix(0.99, 0.14, -0.14, 0.99, 47.47, -41.85)"/><rect class="cls-19" x="322.34" y="320.26" width="5.65" height="7.66" transform="translate(49.09 -42.72) rotate(8.13)"/><rect class="cls-20" x="325.27" y="286.72" width="5.65" height="33.75" transform="translate(46.22 -43.34) rotate(8.13)"/><rect class="cls-19" x="330.37" y="325.45" width="5.65" height="3.65" transform="translate(49.62 -43.82) rotate(8.13)"/><rect class="cls-20" x="334.61" y="295.74" width="5.65" height="3.65" transform="translate(45.46 -44.72) rotate(8.13)"/><rect class="cls-19" x="332.49" y="299.23" width="5.65" height="26.37" transform="matrix(0.99, 0.14, -0.14, 0.99, 47.54, -44.27)"/><rect class="cls-19" x="338.58" y="328.01" width="5.65" height="2.26" transform="translate(49.97 -44.97) rotate(8.13)"/><rect class="cls-19" x="340.25" y="306.73" width="5.65" height="21.4" transform="translate(48.33 -45.32) rotate(8.13)"/><rect class="cls-21" x="341.93" y="304.45" width="5.65" height="2.41" transform="matrix(0.99, 0.14, -0.14, 0.99, 46.68, -45.68)"/><rect class="cls-19" x="347.56" y="319.63" width="5.65" height="11.88" transform="matrix(0.99, 0.14, -0.14, 0.99, 49.55, -46.27)"/><rect class="cls-20" x="348.96" y="311.8" width="5.65" height="7.93" transform="translate(48.18 -46.57) rotate(8.13)"/><rect class="cls-19" x="355.29" y="329.01" width="5.65" height="3.65" transform="translate(50.38 -47.31) rotate(8.13)"/><rect class="cls-19" x="357.41" y="302.79" width="5.65" height="26.37" transform="translate(48.3 -47.76) rotate(8.13)"/><rect class="cls-20" x="360.25" y="289.11" width="5.65" height="13.89" transform="translate(45.51 -48.36) rotate(8.13)"/><rect class="cls-19" x="364.06" y="323.67" width="5.65" height="10.2" transform="matrix(0.99, 0.14, -0.14, 0.99, 50.17, -48.57)"/><rect class="cls-19" x="369.1" y="262.59" width="5.65" height="61.74" transform="translate(45.23 -49.64) rotate(8.13)"/><rect class="cls-20" x="374.74" y="245.01" width="5.65" height="17.97" transform="translate(39.71 -50.83) rotate(8.13)"/><rect class="cls-14" x="102.45" y="207.95" width="5.26" height="3.4" transform="translate(327.95 136.68) rotate(98.49)"/><rect class="cls-14" x="112.23" y="202.57" width="5.26" height="17.07" transform="translate(340.62 128.68) rotate(98.49)"/><rect class="cls-20" x="153.92" y="183.72" width="5.26" height="67.22" transform="translate(394.61 94.6) rotate(98.49)"/><rect class="cls-14" x="100.46" y="216.4" width="5.26" height="1.7" transform="translate(333.18 147.37) rotate(98.49)"/><rect class="cls-14" x="125.32" y="196.67" width="5.26" height="48.57" transform="translate(365.38 127.04) rotate(98.49)"/><rect class="cls-14" x="100.23" y="223.33" width="5.26" height="3.57" transform="translate(340.69 156.62) rotate(98.49)"/><rect class="cls-14" x="116.6" y="212.79" width="5.26" height="29.54" transform="translate(361.9 143.24) rotate(98.49)"/><rect class="cls-20" x="151.66" y="212.12" width="5.26" height="41.35" transform="translate(407.31 114.57) rotate(98.49)"/><rect class="cls-14" x="98.15" y="231.85" width="5.26" height="1.7" transform="matrix(-0.15, 0.99, -0.99, -0.15, 345.81, 167.38)"/><rect class="cls-14" x="103.5" y="228.94" width="5.26" height="9.11" transform="translate(352.74 163.01) rotate(98.49)"/><rect class="cls-20" x="116.08" y="227.21" width="5.26" height="16.32" transform="translate(369.03 152.73) rotate(98.49)"/><rect class="cls-14" x="99.69" y="237.26" width="5.26" height="7.13" transform="translate(355.61 175.19) rotate(98.49)"/><rect class="cls-20" x="141.77" y="234.1" width="5.26" height="26.02" transform="translate(410.12 140.78) rotate(98.49)"/><rect class="cls-14" x="116.06" y="230.29" width="5.26" height="25.97" transform="translate(376.82 161.81) rotate(98.49)"/><rect class="cls-14" x="96.69" y="246.58" width="5.26" height="3.4" transform="translate(359.54 186.71) rotate(98.49)"/><rect class="cls-20" x="139.41" y="237.7" width="5.26" height="33.91" transform="translate(414.88 151.78) rotate(98.49)"/><rect class="cls-14" x="110.5" y="238.07" width="5.26" height="24.54" transform="translate(377.43 175.41) rotate(98.49)"/><rect class="cls-14" x="94.89" y="254.85" width="5.26" height="2.1" transform="translate(365.02 197.24) rotate(98.49)"/><rect class="cls-14" x="105.79" y="247.57" width="5.26" height="19.92" transform="translate(379.13 188.34) rotate(98.49)"/><rect class="cls-20" x="128.9" y="247.57" width="5.26" height="26.82" transform="translate(409.07 169.44) rotate(98.49)"/><rect class="cls-14" x="98.17" y="258.76" width="5.26" height="11.06" transform="translate(377.08 203.63) rotate(98.49)"/><rect class="cls-14" x="119.63" y="251.33" width="5.26" height="32.33" transform="translate(404.87 186.08) rotate(98.49)"/><rect class="cls-14" x="93.23" y="269.75" width="5.26" height="3.4" transform="translate(378.49 216.73) rotate(98.49)"/><rect class="cls-14" x="107.04" y="261.24" width="5.26" height="24.54" transform="translate(396.38 205.44) rotate(98.49)"/><rect class="cls-20" x="135.26" y="261.47" width="5.26" height="32.52" transform="translate(432.94 182.36) rotate(98.49)"/><rect class="cls-14" x="95.09" y="274.88" width="5.26" height="9.5" transform="translate(388.71 224.27) rotate(98.49)"/><rect class="cls-14" x="127.94" y="255.8" width="5.26" height="57.47" transform="translate(431.26 197.42) rotate(98.49)"/><rect class="cls-20" x="162.47" y="283.5" width="5.26" height="12.37" transform="translate(476 169.18) rotate(98.49)"/><rect class="cls-14" x="93.86" y="282.59" width="5.26" height="9.5" transform="translate(394.93 234.34) rotate(98.49)"/><rect class="cls-14" x="126.71" y="263.51" width="5.26" height="57.47" transform="translate(437.48 207.49) rotate(98.49)"/><rect class="cls-20" x="161.25" y="291.22" width="5.26" height="12.37" transform="translate(482.22 179.25) rotate(98.49)"/><circle id="_Ellipse_4" data-name="&lt;Ellipse&gt;" class="cls-2" cx="601.62" cy="176.99" r="36.04"/><g class="cls-22"><path class="cls-19" d="M563.47,185.91,603,176.68l3.87-42.24L584.24,134s-16.74,3.48-17.34,3.73-7.09,28.74-7.09,28.74l2.6,17.71Z"/><path class="cls-7" d="M603,176.68l38.38,5.07-5.13-33-11.63-4.84s-7.17-1.12-8.26-1.53-10-2.3-10-2.3Z"/><polygon class="cls-19" points="602.98 176.68 604.21 231.89 646.1 208.93 648.7 188.59 637.42 181.23 602.98 176.68"/><polygon class="cls-7" points="602.98 176.68 568.45 207.68 562.74 192.4 562.41 184.2 566.53 185.2 602.98 176.68"/></g><circle class="cls-5" cx="601.62" cy="176.99" r="14.78"/><path class="cls-14" d="M605.76,272.53a.86.86,0,0,1-.86-.77c-.6-5.27-1.94-8.75-4-10.32a5,5,0,0,0-3.94-.9c-5,.74-5.77,8.26-5.66,11.09a.87.87,0,0,1-1.73.07c-.17-4.06,1.11-12,7.14-12.87a6.7,6.7,0,0,1,5.25,1.24c2.46,1.89,4,5.65,4.65,11.5a.86.86,0,0,1-.76,1Z"/><path class="cls-12" d="M599.54,262.49c-2.72-4.3-2.95-3.47-4.43-3-1,.31-1.82-1.42.58-3.26,3.28-2.51,7.3.62,7.75,1.53a27,27,0,0,1,.91,4.75Z"/><polygon class="cls-14" points="605.09 284.32 591.11 284.32 589.12 270.24 607.65 270.24 605.09 284.32"/><path class="cls-12" d="M619.45,188.48c-2.25.64-4.18,2.93-3.85,3.93.18.53.47.52,1.5.11a4,4,0,0,0,2.14-1.6A4.35,4.35,0,0,0,619.45,188.48Z"/><polygon class="cls-5" points="644.55 444.86 645.87 447.36 646.36 449.33 652.38 445.17 651.96 444.1 650.74 442.11 643.05 436.49 644.55 444.86"/><polygon class="cls-5" points="668.1 402.6 679.27 356.35 667.18 394.4 662.07 399.24 661.57 402.24 666.96 407.11 668.1 402.6"/><path class="cls-7" d="M656.38,324.44C651,341.13,670.46,345.82,668,353.1c-4.1,11.88-5.88,46.14-5.88,46.14,1.22-1.62,6.1.46,6,3.36,0,0,19.52-49.66,21.23-54.92,1.95-6,8.54-9.33,7.84-13.63-1.3-7.89-2.58-10.82-2.58-10.82l-26.05-24Z"/><path class="cls-12" d="M622.49,200.94c-2.59-4.12-5.82-8-4.93-8.76.64-.53.87-.39,1.56.49,1.48,1.91.25-1,.25-1l-.72-.51c.3-1.79-.75-3.13,3-2.75,1.88.19,2.24,2.06,3,3.9,1.23,2.79.63,4.25.74,5.91S622.49,200.94,622.49,200.94Z"/><path class="cls-5" d="M599.08,265.06s-.67-2.75-.82-3.65c-.39-2.39,4.11-5.4,6-.84.24.58.78,2.73.78,2.73Z"/><path class="cls-5" d="M623.37,202.76c-.41-.68-1.16-1.73-2-3.25-1-1.73,3-3.13,4.1-1.51l1.2,3.75Z"/><path class="cls-7" d="M661.58,401.62c1.64-.82,4.91,1.4,7.49,7.75s12.81,17.15,7.92,20.13c-1.65,1-19.13-20.88-18.18-23.21.05-.12.1-.24.16-.36C659.9,403.73,660.7,402.06,661.58,401.62Z"/><path class="cls-23" d="M677,429.5c-1.61,1.82-17.11-18.05-17.77-19.52s-1.12-2.68-.41-3.69,3.43-.57,5.42,2.07C665.14,409.58,680.2,425.86,677,429.5Z"/><path class="cls-23" d="M589.79,271c1,.82,1.28.65,1.67,4.54s.27,3.6.55,3.68c.7.2.64-5.1.83-5.88.12-.48.7-1.13.89.05s.42,1.57.8,1.56c.85,0,.54-3,1.09-3.2a1.24,1.24,0,0,1,1.79.47c.6.87,1.11.13,1.33-.19s3-.14,3.21-.89a1.31,1.31,0,0,1,.65-.92H589.49A3.28,3.28,0,0,0,589.79,271Z"/><path class="cls-7" d="M644.11,309.12c-15,29.16-26.79,57.95-22,84.26,2,11,22.48,51.48,22.48,51.48.38-3.25,5.48-4.07,6.19-2.75,0,0-15.36-46.49-11.51-59.27,3.8-12.57,23.13-35.86,28.84-43.08,0,0,12.16-16.42,10.9-30S644.11,309.12,644.11,309.12Z"/><path class="cls-7" d="M683.56,285.08c-5.94-18.4-5.43-21.75-10.95-33.85-7.76-17-36.07-27.82-39.63-32.86-4.11-5.83-4.24-11.27-7.19-19.77,0,0-3.16-1.56-4.66,1.24,0,0,1.44,20,4.23,24.19s20.83,24.8,20.83,24.8a9.14,9.14,0,0,1-1.65,1.34c-17.39,6.78-33,24.26-33,24.26s-2.65-5.22-6-11.95c-2.3-4.56-7.65-1.59-6.75,2.42.6,2.67,8.5,23.78,12,27.77,5.84,6.73,21.7-11.29,21.7-11.29s.77,39.87-.38,50.35a110.08,110.08,0,0,1,21.41-8.5c8.23-2.1,20.49-1.75,20.49-1.75l.58-13.9,2.84,14.17s11.74-.41,17.26,1.48C694.59,323.23,689.44,303.29,683.56,285.08Z"/><path class="cls-12" d="M648.84,223.51c-3.78,5-8.45,16.21-3.82,19.41,4.88,3.37,1.48,7.09,1.48,7.09s5.62-1.52,9.81-2.6c3.83-1,2.06-4.69,3.2-7,2.75-5.49,5.35-9.66,2.66-13.4C658.37,221.76,651.29,220.26,648.84,223.51Z"/><path class="cls-5" d="M647.47,247.8l-2.93,2.37s7.21-.67,11.14-2.29c2.25-.92,3-1.66,3.28-2.45,0,0-4.91-.54-6.69.7A13,13,0,0,1,647.47,247.8Z"/><path class="cls-24" d="M650.74,219.7c-3.26,1.17-4.5,6.53-2.35,12.85,0,0,3.43-1.81,4.39,1.9,1.13,4.39-1.85,3.9-1.59,4.5,2.55,5.71.61,4.84,2,5.52,2.2,1.09,6,1.94,7.43.55s1.06-4.38,3.33-7.88,4-8.47,1.4-12S654.87,218.24,650.74,219.7Z"/><path class="cls-7" d="M648,452.62a13.36,13.36,0,0,1,7-2.4,14.73,14.73,0,0,0-3.1-6.12c-.2-1.19-4.75,1.27-6.09,3.25-2.49,3.7-10.28,10-10.23,14.6a4,4,0,0,0,.5,1.75C637.84,460.08,642,456.9,648,452.62Z"/><path class="cls-23" d="M636.14,463.7c.11,1.13,10-7,13.89-8.37s5.4-4.53,5-5.11-2.62-.24-4.85.91a72.86,72.86,0,0,0-10,7.22C638.9,459.65,636.05,462.89,636.14,463.7Z"/><polygon class="cls-7" points="614.32 192.68 625.61 188.65 626.3 190.53 614.86 194.48 614.32 192.68"/><path class="cls-12" d="M618.31,194.65c-1.19-1.78-1.92-3.37-1.16-3.7s2.19,2,2.19,2Z"/><path class="cls-23" d="M614.32,192.68s-1.69.5-2.37-.76l-1,2.68s.38,1.68,1.71,1.59,2.4-1.76,2.4-1.76Z"/><polygon class="cls-7" points="625.61 188.65 626.45 188.39 627.15 190.29 626.3 190.53 625.61 188.65"/><path class="cls-10" d="M653.42,510.21h-.22a1.32,1.32,0,0,1-1.09-1.52l27.35-166.29a1.32,1.32,0,0,1,2.61.43L654.72,509.11A1.32,1.32,0,0,1,653.42,510.21Z"/><rect class="cls-10" x="706.91" y="396.99" width="21.82" height="2.64"/><path class="cls-10" d="M746.67,510.21a1.31,1.31,0,0,1-1.3-1.11l-27-166.28a1.34,1.34,0,0,1,1.1-1.52,1.31,1.31,0,0,1,1.51,1.1l27,166.28a1.33,1.33,0,0,1-1.1,1.52Z"/><path class="cls-10" d="M724.39,510.21a1.33,1.33,0,0,1-1.3-1.11l-27-166.28a1.32,1.32,0,1,1,2.61-.42l27,166.28a1.32,1.32,0,0,1-1.09,1.52Z"/><path class="cls-10" d="M631.59,510a.71.71,0,0,1-.2,0,1.29,1.29,0,0,1-1.08-1.49l27-166.92a1.3,1.3,0,1,1,2.57.41L632.88,509A1.31,1.31,0,0,1,631.59,510Z"/><rect class="cls-25" x="653.42" y="338.48" width="62.87" height="8.25" transform="translate(1369.7 685.21) rotate(180)"/><rect class="cls-10" x="687.34" y="338.48" width="37.06" height="8.25" transform="translate(1411.74 685.21) rotate(180)"/><path class="cls-10" d="M677.79,362H656.38a1.3,1.3,0,1,1,0-2.6h21.41a1.3,1.3,0,1,1,0,2.6Z"/><path class="cls-10" d="M674,385.05H652.59a1.3,1.3,0,0,1,0-2.6H674a1.3,1.3,0,0,1,0,2.6Z"/><path class="cls-10" d="M670.21,408.1H648.8a1.3,1.3,0,1,1,0-2.6h21.41a1.3,1.3,0,0,1,0,2.6Z"/><path class="cls-10" d="M666.42,431.16H645a1.3,1.3,0,1,1,0-2.6h21.41a1.3,1.3,0,1,1,0,2.6Z"/><path class="cls-10" d="M662.62,454.21h-21.4a1.3,1.3,0,0,1,0-2.6h21.4a1.3,1.3,0,0,1,0,2.6Z"/><path class="cls-10" d="M658.83,477.26h-21.4a1.3,1.3,0,1,1,0-2.6h21.4a1.3,1.3,0,1,1,0,2.6Z"/><path class="cls-10" d="M655,500.31h-21.4a1.3,1.3,0,1,1,0-2.6H655a1.3,1.3,0,1,1,0,2.6Z"/><g class="cls-26"><line class="cls-27" x1="393.89" y1="217.03" x2="550.54" y2="217.03"/><line class="cls-27" x1="393.89" y1="212.14" x2="550.54" y2="212.14"/><line class="cls-27" x1="393.89" y1="207.26" x2="550.54" y2="207.26"/><line class="cls-27" x1="393.89" y1="202.38" x2="550.54" y2="202.38"/><line class="cls-27" x1="393.89" y1="197.49" x2="550.54" y2="197.49"/><line class="cls-27" x1="393.89" y1="192.61" x2="550.54" y2="192.61"/><line class="cls-27" x1="393.89" y1="187.72" x2="550.54" y2="187.72"/><line class="cls-27" x1="393.89" y1="182.84" x2="550.54" y2="182.84"/><line class="cls-27" x1="393.89" y1="177.96" x2="550.54" y2="177.96"/><line class="cls-27" x1="393.89" y1="173.07" x2="550.54" y2="173.07"/><line class="cls-27" x1="393.89" y1="168.19" x2="550.54" y2="168.19"/><line class="cls-27" x1="393.89" y1="163.31" x2="550.54" y2="163.31"/><line class="cls-27" x1="393.89" y1="158.42" x2="550.54" y2="158.42"/><line class="cls-27" x1="393.89" y1="153.54" x2="550.54" y2="153.54"/><line class="cls-27" x1="393.89" y1="148.66" x2="550.54" y2="148.66"/><line class="cls-27" x1="393.89" y1="143.77" x2="550.54" y2="143.77"/><line class="cls-27" x1="393.89" y1="138.89" x2="550.54" y2="138.89"/><line class="cls-27" x1="393.89" y1="134" x2="550.54" y2="134"/></g><path class="cls-10" d="M555.78,217.44h-.11a.77.77,0,0,1-.75-.76l.52-85.08a.75.75,0,0,1,.76-.75.74.74,0,0,1,.74.76l-.51,85.08A.75.75,0,0,1,555.78,217.44Z"/><path class="cls-10" d="M391.32,217.44h-.11a.77.77,0,0,1-.75-.76l.52-85.08a.75.75,0,0,1,.76-.75.74.74,0,0,1,.74.76L392,216.7A.75.75,0,0,1,391.32,217.44Z"/><rect class="cls-10" x="105.16" y="198.46" width="18.47" height="2.06" transform="translate(30.56 -14.65) rotate(8.45)"/><rect class="cls-10" x="105.87" y="195.06" width="30.07" height="2.06" transform="matrix(0.99, 0.15, -0.15, 0.99, 30.13, -15.64)"/><rect class="cls-10" x="217.07" y="212.32" width="30.07" height="2.06" transform="translate(33.87 -31.79) rotate(8.45)"/><rect class="cls-14" x="407.4" y="211.51" width="3.11" height="5.44"/><rect class="cls-14" x="413.61" y="192.76" width="3.11" height="24.19"/><rect class="cls-14" x="424.13" y="156.89" width="3.11" height="60.06"/><rect class="cls-14" x="442.77" y="211.08" width="3.11" height="5.87"/><rect class="cls-14" x="453.28" y="204.39" width="3.11" height="12.56"/><rect class="cls-14" x="466.9" y="186.92" width="3.11" height="30.03"/><rect class="cls-21" x="472.88" y="186.92" width="3.11" height="30.03"/><rect class="cls-21" x="484.35" y="138.89" width="3.11" height="78.06"/><rect class="cls-14" x="496.77" y="205.36" width="3.11" height="11.59"/><rect class="cls-14" x="502.03" y="205.36" width="3.11" height="11.59"/><rect class="cls-14" x="512.43" y="192.8" width="3.11" height="24.15"/><rect class="cls-14" x="522.7" y="211.08" width="3.11" height="5.87"/><rect class="cls-14" x="526.53" y="199.61" width="3.11" height="17.34"/><rect class="cls-14" x="530.35" y="205.36" width="3.11" height="11.59"/><rect class="cls-14" x="534.17" y="187.22" width="3.11" height="29.73"/><rect class="cls-14" x="538" y="192.8" width="3.11" height="24.15"/><rect class="cls-21" x="541.82" y="186.02" width="3.11" height="30.93"/><rect class="cls-14" x="478.85" y="211.51" width="3.11" height="5.44"/><path class="cls-12" d="M419.18,45.52s30.28,32.62,57.15,46.72a10.33,10.33,0,0,1,5.35,4.36c1,1.59,4.67,3.68,3.6.71s.89-2.18,2.93-1l4.17,2.41s1.62-2.41-4.79-6.06-7.22-3.16-9.26-4.93C476.76,86.37,454,65.07,454,65.07l-25.79-28.4S419.57,40,419.18,45.52Z"/><path class="cls-5" d="M436.93,45.83s-5.8-4.77-4.79-11.19,1.39-13.85,1.39-13.85-9.31,22.67-11,28.25l3.77,3.84C425.33,51.1,434.19,42.69,436.93,45.83Z"/><path class="cls-5" d="M428,163.62l-.86,4.64a16.68,16.68,0,0,1-1.42,3.67,2.06,2.06,0,0,0-.47,1.63l6.37,6.21,1.95-2.93s-1.89-3-1.73-4a30.63,30.63,0,0,1,1-3.34l1.76-5.37Z"/><path class="cls-7" d="M429.65,183.46c-4.07-1.89-7.85-5.4-6-8.35.67-1.07,2.2-3.37,2.2-3.37,1,3.38,7.18,5.52,7.69,5.1,0,0,15,9.87,14.59,11.86a3.63,3.63,0,0,1-.41.81C446.45,191.11,433.3,185.17,429.65,183.46Z"/><path class="cls-5" d="M416.55,197.92s.66,6.7.27,7.77a3.13,3.13,0,0,0-.05,2l7.52,5.43s-.57-5.48-1.09-11.76c-.12-1.46,0-5.85,0-5.85Z"/><path class="cls-7" d="M422,216.47c-4.11-1.45-7.26-3.41-6.3-6.78l1.16-4c.73,2.55,6.57,4.47,7.05,3.25,0,0,17.44,9.26,17.69,11.34a3.84,3.84,0,0,1-.15.93C440.59,223.19,426,217.9,422,216.47Z"/><path class="cls-7" d="M397.93,66.28c27.94,6.49,67.8,22.09,67.81,38.44,0,10.86-32.24,66-32.24,66s-5.71-.53-7.06-2.66c.07-5,26.09-55.86,18.35-60.13-15.08-8.31-51-11.72-51-11.72Z"/><path class="cls-7" d="M370.54,85.94c.1,17.74,35.7,47.08,36.94,54,2,11.35,9.07,57.94,9.07,57.94,1,2,6.61,2.53,6.61.65,0,0,3.18-62.49,1.83-67.36-2.29-8.27-10.77-34.18-18.36-45.49-2.55-3.8-9.66-15.16-9.66-15.16S370.38,56.9,370.54,85.94Z"/><path class="cls-7" d="M376.83,96.23s-16.71,1.36-12.47-32.58c3.53-28.22,15.6-39.3,41-53.41,23.77-13.23,29.58,5,28,15.36-.16,1.06-7.48,13.36-12.35,28.27-2.45,7.46-5,16-4.29,23.26.86,8.45-35.25,17.92-35.25,17.92l-2.48-16.91Z"/><path class="cls-12" d="M454.46,16.92C447.4,30.59,445.05,30.67,442,30s-3-2.71-6.29-4-4.34,1.73-7.82,2.75c-2.41.7-2.82-6.59-.37-9.66s3.24-6.44,8.52-4.66,6.37-1.5,12.9-1.55S454.46,16.92,454.46,16.92Z"/><path class="cls-14" d="M455.52,9.39c5.75,7-.79,8.34-3.69,7.82-4-.7-9.32.71-9.32.71-3.77-5.43-6.49.84-5.11,2,2.06,1.77-7.45-2-10.86,5.93S416.29,31,413.8,23.61c-2.25-6.67-5.16-14.34-11.74-11.12s-18.91,12.07-23.81,17.9c-8,9.56-12,22.94-12,22.94-.86-5.1-7,1.87-9.08-5C354,37.71,363,24.53,374.77,22.81c10-1.47,12.26-6.41,18-17.36s25.63,1.68,32.57-1C446.31-3.52,447.64-.14,455.52,9.39Z"/><path class="cls-12" d="M399.21,49c6.45,20.89,7.9,30.4,27.33,36.17s28.81,3.16,32.78,7.76,2.7.21,2.36-.55-3.17-6.08-5.66-7.72c0,0-2-1.87-6.48-1.7-2.63.1-28.09-2.88-31.49-13.83-2.37-7.65-5.43-23.72-5.43-23.72l-8.88-3.57Z"/><path class="cls-5" d="M408.78,15.35c3.84,7.94,3.84,30.1,3.84,30.1S401.46,43.59,399.21,49c0,0-5.18-12.16-4.24-18.95S406.58,10.81,408.78,15.35Z"/><rect class="cls-14" x="359.17" y="208.08" width="4.32" height="9.09" transform="translate(0.53 -0.9) rotate(0.14)"/><rect class="cls-20" x="359.19" y="202.02" width="4.32" height="6.06" transform="translate(0.51 -0.9) rotate(0.14)"/><rect class="cls-14" x="365.58" y="214.4" width="4.32" height="2.79" transform="translate(0.54 -0.91) rotate(0.14)"/><rect class="cls-14" x="365.61" y="194.23" width="4.32" height="20.17" transform="translate(0.51 -0.91) rotate(0.14)"/><rect class="cls-20" x="365.65" y="183.61" width="4.32" height="10.62" transform="translate(0.47 -0.91) rotate(0.14)"/><rect class="cls-14" x="352.63" y="214.4" width="4.32" height="2.79" transform="translate(0.54 -0.88) rotate(0.14)"/><rect class="cls-14" x="352.66" y="194.23" width="4.32" height="20.17" transform="translate(0.51 -0.88) rotate(0.14)"/><rect class="cls-20" x="352.69" y="183.61" width="4.32" height="10.62" transform="translate(0.47 -0.88) rotate(0.14)"/><rect class="cls-14" x="372.01" y="209.4" width="4.32" height="7.8" transform="translate(0.53 -0.93) rotate(0.14)"/><rect class="cls-14" x="372.08" y="162.4" width="4.32" height="47.23" transform="translate(0.46 -0.93) rotate(0.14)"/><rect class="cls-20" x="372.15" y="148.65" width="4.32" height="13.75" transform="translate(0.39 -0.93) rotate(0.14)"/><circle class="cls-28" cx="229.51" cy="252.12" r="15.7"/><circle class="cls-29" cx="267.23" cy="257.29" r="15.7"/><circle class="cls-30" cx="224.33" cy="289.83" r="15.7"/><circle class="cls-31" cx="262.05" cy="295.01" r="15.7"/></g></g></g></svg>