<svg xmlns="http://www.w3.org/2000/svg" xmlns:xlink="http://www.w3.org/1999/xlink" viewBox="0 0 757.48 704.94"><defs><style>.cls-1{fill:#d31c59;}.cls-2{fill:url(#_ÂÁ_Ï_ÌÌ_È_ËÂÌÚ_28);}.cls-3{fill:#fff;}.cls-4{fill:#c1c1c1;}.cls-5{fill:#bfc7cc;}.cls-6{fill:#f38d33;}.cls-7{fill:#000b73;}.cls-8{fill:#000486;}.cls-9{clip-path:url(#clip-path);}.cls-10{fill:#ff457a;}.cls-11{fill:#ff71a0;}.cls-12{fill:#0096ff;}.cls-13{fill:#f2457a;}.cls-14{fill:#ececec;}.cls-15{fill:#ffd6d6;}.cls-16{fill:#1ac9ff;opacity:0.2;}.cls-17{fill:url(#_ÂÁ_Ï_ÌÌ_È_ËÂÌÚ_124);}.cls-18{fill:#d0d9de;}.cls-19{fill:url(#_ÂÁ_Ï_ÌÌ_È_ËÂÌÚ_28-2);}.cls-20{fill:url(#_ÂÁ_Ï_ÌÌ_È_ËÂÌÚ_21);}.cls-21{fill:#b8d3d7;}.cls-22{fill:url(#_ÂÁ_Ï_ÌÌ_È_ËÂÌÚ_28-3);}.cls-23{fill:url(#_ÂÁ_Ï_ÌÌ_È_ËÂÌÚ_28-4);}.cls-24{fill:url(#_ÂÁ_Ï_ÌÌ_È_ËÂÌÚ_37);}.cls-25{fill:#ff6a8b;}.cls-26{fill:url(#_ÂÁ_Ï_ÌÌ_È_ËÂÌÚ_28-5);}.cls-27{fill:#633b25;}</style><linearGradient id="_ÂÁ_Ï_ÌÌ_È_ËÂÌÚ_28" x1="739.68" y1="49.28" x2="-880.74" y2="1076.47" gradientUnits="userSpaceOnUse"><stop offset="0" stop-color="#e8e8e8"/><stop offset="1" stop-color="#ddeefb"/></linearGradient><clipPath id="clip-path"><ellipse id="_Ellipse_" data-name="&lt;Ellipse&gt;" class="cls-1" cx="462.48" cy="310.38" rx="42.46" ry="46.58" transform="translate(-94.11 289.53) rotate(-31.72)"/></clipPath><linearGradient id="_ÂÁ_Ï_ÌÌ_È_ËÂÌÚ_124" x1="13360.31" y1="335.18" x2="13415.35" y2="24.15" gradientTransform="matrix(-1, 0, 0, 1, 14091.77, -14.61)" gradientUnits="userSpaceOnUse"><stop offset="0" stop-color="#ef346c"/><stop offset="0.16" stop-color="#ef386d"/><stop offset="0.33" stop-color="#f1446e"/><stop offset="0.49" stop-color="#f35871"/><stop offset="0.65" stop-color="#f67575"/><stop offset="0.82" stop-color="#fa9979"/><stop offset="0.98" stop-color="#fec57f"/><stop offset="1" stop-color="#ffcb80"/></linearGradient><linearGradient id="_ÂÁ_Ï_ÌÌ_È_ËÂÌÚ_28-2" x1="166.41" y1="479.42" x2="164.17" y2="433.24" xlink:href="#_ÂÁ_Ï_ÌÌ_È_ËÂÌÚ_28"/><linearGradient id="_ÂÁ_Ï_ÌÌ_È_ËÂÌÚ_21" x1="171.64" y1="532.29" x2="153.89" y2="166.17" gradientUnits="userSpaceOnUse"><stop offset="0" stop-color="#4d80ff"/><stop offset="1" stop-color="#ef346c"/></linearGradient><linearGradient id="_ÂÁ_Ï_ÌÌ_È_ËÂÌÚ_28-3" x1="621.63" y1="519.93" x2="287.12" y2="659" xlink:href="#_ÂÁ_Ï_ÌÌ_È_ËÂÌÚ_28"/><linearGradient id="_ÂÁ_Ï_ÌÌ_È_ËÂÌÚ_28-4" x1="198.46" y1="357.74" x2="394.32" y2="468.25" xlink:href="#_ÂÁ_Ï_ÌÌ_È_ËÂÌÚ_28"/><linearGradient id="_ÂÁ_Ï_ÌÌ_È_ËÂÌÚ_37" x1="137.43" y1="431.28" x2="169.5" y2="431.28" gradientUnits="userSpaceOnUse"><stop offset="0" stop-color="#bfc7cc"/><stop offset="1" stop-color="#e8e8e8"/></linearGradient><linearGradient id="_ÂÁ_Ï_ÌÌ_È_ËÂÌÚ_28-5" x1="14398.89" y1="547.22" x2="14064.38" y2="686.3" gradientTransform="matrix(-1, 0, 0, 1, 14677.11, 0)" xlink:href="#_ÂÁ_Ï_ÌÌ_È_ËÂÌÚ_28"/></defs><title>embedded-bi</title><g id="Layer_2" data-name="Layer 2"><g id="Layer_1-2" data-name="Layer 1"><polygon class="cls-2" points="672.16 449.73 253.22 337.5 253.22 0 672.16 112.23 672.16 449.73"/><polygon class="cls-3" points="656.07 269.14 284.15 169.5 284.15 26.87 656.07 126.5 656.07 269.14"/><polygon class="cls-3" points="518.82 389.34 284.15 326.47 284.15 183.83 518.82 246.7 518.82 389.34"/><polygon class="cls-3" points="656.07 283.46 532.52 250.37 532.52 393.01 656.07 426.1 656.07 283.46"/><polygon class="cls-4" points="594.47 155.87 570.8 149.53 570.8 152.57 594.47 158.91 594.47 155.87"/><polygon class="cls-4" points="594.47 164.29 570.8 157.95 570.8 160.99 594.47 167.33 594.47 164.29"/><polygon class="cls-4" points="594.47 147.44 570.8 141.1 570.8 144.15 594.47 150.49 594.47 147.44"/><polygon class="cls-4" points="579.18 168.61 570.8 166.37 570.8 169.41 579.18 171.66 579.18 168.61"/><path class="cls-5" d="M605.72,179.65a.88.88,0,0,1-.88-.88V150.46a.88.88,0,0,1,1.76,0v28.31A.88.88,0,0,1,605.72,179.65Z"/><path class="cls-4" d="M626.41,156c-6.77-1.81-12.26,3.05-12.26,10.87s5.49,15.63,12.26,17.44,12.26-3.05,12.26-10.87S633.18,157.82,626.41,156Zm0,25c-5.18-1.39-9.39-7.37-9.39-13.36s4.21-9.71,9.39-8.32,9.39,7.36,9.39,13.35S631.6,182.38,626.41,181Z"/><path class="cls-5" d="M638.67,199.42l-.23,0L570.58,181.2a.88.88,0,0,1-.63-1.07.89.89,0,0,1,1.08-.63l67.87,18.19a.86.86,0,0,1,.62,1.07A.87.87,0,0,1,638.67,199.42Z"/><path class="cls-6" d="M635.8,172.67c0,3.55-1.48,6.31-3.77,7.67a1.54,1.54,0,0,0-.4,2l.06.14c.41.95,1.36,1.43,2,1,3-1.77,5-5.38,5-10,0-7.2-4.66-14.4-10.69-16.9a1.1,1.1,0,0,0-1.57,1.15v.14a2.13,2.13,0,0,0,1.22,1.9C632.24,161.66,635.8,167.16,635.8,172.67Z"/><path class="cls-5" d="M385.36,242a.85.85,0,0,1-.23,0l-33.52-9a.88.88,0,0,1-.62-1.08.86.86,0,0,1,1.07-.62l33.52,9a.88.88,0,0,1,.63,1.07A.89.89,0,0,1,385.36,242Z"/><path class="cls-5" d="M385.36,271.59a.85.85,0,0,1-.23,0l-73.35-19.65a.89.89,0,0,1-.63-1.08.88.88,0,0,1,1.08-.62l73.35,19.65a.88.88,0,0,1-.22,1.73Z"/><path class="cls-5" d="M385.36,301.15a.85.85,0,0,1-.23,0L330.5,286.49a.88.88,0,0,1,.46-1.7l54.62,14.63a.88.88,0,0,1-.22,1.73Z"/><path class="cls-5" d="M385.36,330.71a.85.85,0,0,1-.23,0l-33.52-9a.86.86,0,0,1-.62-1.07.88.88,0,0,1,1.07-.63l33.52,9a.89.89,0,0,1,.63,1.08A.88.88,0,0,1,385.36,330.71Z"/><path class="cls-4" d="M271.75,148.35a4.35,4.35,0,0,0-2.89-4.1c-1.59-.43-2.88.72-2.88,2.56a4.36,4.36,0,0,0,2.88,4.1C270.46,151.33,271.75,150.19,271.75,148.35Z"/><ellipse class="cls-4" cx="268.86" cy="111.92" rx="2.68" ry="3.58" transform="translate(-21.7 131.57) rotate(-26.47)"/><path class="cls-4" d="M271.75,77a4.35,4.35,0,0,0-2.89-4.1c-1.59-.43-2.88.72-2.88,2.56a4.35,4.35,0,0,0,2.88,4.1C270.46,80,271.75,78.87,271.75,77Z"/><polygon class="cls-7" points="253.22 54.24 255.83 54.94 255.83 19.28 253.22 18.58 253.22 54.24"/><path class="cls-7" d="M271.75,41.37a4.35,4.35,0,0,0-2.89-4.1c-1.59-.43-2.88.72-2.88,2.56a4.35,4.35,0,0,0,2.88,4.1C270.46,44.36,271.75,43.21,271.75,41.37Z"/><path class="cls-7" d="M271.75,41.37a4.35,4.35,0,0,0-2.89-4.1c-1.59-.43-2.88.72-2.88,2.56a4.35,4.35,0,0,0,2.88,4.1C270.46,44.36,271.75,43.21,271.75,41.37Z"/><path class="cls-8" d="M355.66,234.74l-51.84-13.88a2.17,2.17,0,0,1-1.55-2h0a1.15,1.15,0,0,1,1.55-1.14l51.84,13.89a2.18,2.18,0,0,1,1.56,2h0A1.15,1.15,0,0,1,355.66,234.74Z"/><path class="cls-8" d="M317,253.94l-13.15-3.52a2.17,2.17,0,0,1-1.55-2h0a1.15,1.15,0,0,1,1.55-1.14L317,250.84a2.16,2.16,0,0,1,1.55,2h0A1.15,1.15,0,0,1,317,253.94Z"/><path class="cls-8" d="M334.71,288.26,303.82,280a2.17,2.17,0,0,1-1.55-2h0a1.15,1.15,0,0,1,1.55-1.13l30.89,8.27a2.18,2.18,0,0,1,1.56,2h0A1.16,1.16,0,0,1,334.71,288.26Z"/><path class="cls-8" d="M368.39,326.84l-64.57-17.3a2.16,2.16,0,0,1-1.55-2h0a1.15,1.15,0,0,1,1.55-1.14l64.57,17.3a2.16,2.16,0,0,1,1.55,2h0A1.15,1.15,0,0,1,368.39,326.84Z"/><polygon class="cls-4" points="325.45 211.91 302.27 205.7 302.27 211.43 325.45 217.64 325.45 211.91"/><polygon class="cls-4" points="325.45 241.47 302.27 235.26 302.27 240.99 325.45 247.2 325.45 241.47"/><polygon class="cls-4" points="325.45 271.03 302.27 264.82 302.27 270.54 325.45 276.76 325.45 271.03"/><polygon class="cls-4" points="325.45 300.59 302.27 294.38 302.27 300.1 325.45 306.31 325.45 300.59"/><path class="cls-5" d="M403.56,338.27a.88.88,0,0,1-.88-.88V232.65a.88.88,0,0,1,1.76,0V337.39A.87.87,0,0,1,403.56,338.27Z"/><polygon class="cls-4" points="443.38 242.94 419.71 236.6 419.71 239.65 443.38 245.99 443.38 242.94"/><polygon class="cls-4" points="443.38 251.36 419.71 245.02 419.71 248.07 443.38 254.41 443.38 251.36"/><polygon class="cls-4" points="428.09 255.69 419.71 253.44 419.71 256.49 428.09 258.74 428.09 255.69"/><ellipse id="_Ellipse_2" data-name="&lt;Ellipse&gt;" class="cls-1" cx="462.48" cy="310.38" rx="42.46" ry="46.58" transform="translate(-94.11 289.53) rotate(-31.72)"/><g class="cls-9"><path class="cls-10" d="M463.33,261.19l-.88,50.95L510.89,334l7.2-26.83s.88-21.39.77-22.21-31.64-20.24-31.64-20.24l-21.56-4.14Z"/><path class="cls-11" d="M462.45,312.14l-17.34,43.73,40.29,7.39,9.14-11.9s3.44-8.11,4.23-9.23,5.67-11,5.67-11Z"/><polygon class="cls-10" points="462.45 312.14 397.27 291.01 411.79 350.41 434.91 361.84 446.89 351.38 462.45 312.14"/><polygon class="cls-11" points="462.45 312.14 436.3 258.22 455.93 257.66 465.66 260.63 463.26 265.13 462.45 312.14"/></g><ellipse class="cls-3" cx="462.48" cy="310.38" rx="17.41" ry="19.1" transform="translate(-94.11 289.53) rotate(-31.72)"/><ellipse class="cls-12" cx="566.82" cy="302.91" rx="24.97" ry="23.52" transform="translate(255.48 865.15) rotate(-89.15)"/><ellipse class="cls-13" cx="622.88" cy="316.99" rx="24.97" ry="23.52" transform="translate(296.64 935.06) rotate(-89.15)"/><ellipse class="cls-6" cx="565.06" cy="363.48" rx="24.97" ry="23.52" transform="translate(193.19 923.06) rotate(-89.15)"/><ellipse class="cls-8" cx="621.12" cy="377.55" rx="24.97" ry="23.52" transform="translate(234.34 992.98) rotate(-89.15)"/><path class="cls-7" d="M727.91,583.78c6.63,8.92,3.54,16.37-4.41,21.12-8.19,4.9-27.13,21.52-33.32,16.84-2.25-1.69,3.64-5.08,6.63-9,5.26-6.84,10.6-15.25,11.75-18.93,1.8-5.76,3.29-10,3.29-10Z"/><path class="cls-7" d="M708,614.77c1.51,8.93,2.16,16.9-5.59,22-8.55,5.63-29.09,19-38.15,9.68-5.43-5.56,18.61-14.22,20.41-20a19.05,19.05,0,0,0,.12-10.78Z"/><path class="cls-10" d="M692.48,206.29c-3.83,15.77,8.35-22.23,28.43-1.75,10,10.17,16.57,5.67,17,22.37s9.28,11.88,12.08,25.65-4.81,12.48-3.25,21.57,10.57,11.6,8.7,24.52c-1.21,8.41-5.86,9.93-8,18.94-4,16.72,5.37,18.6,9.32,34.81,5.83,23.87-21.93,45.9-38.15,22s0-79.59,0-79.59Z"/><path class="cls-14" d="M653.71,382.41c1,71.34-1.87,97.95,15.32,123,15.13,22,37.71,95.39,37.71,95.39L738,584.09s-30.75-96.12-29.53-118-21.67-100.61-21.67-100.61l-32-17.84S653.59,373.72,653.71,382.41Z"/><path class="cls-3" d="M667.59,362.34c2.35,37.23-8,119.48-4.73,145.22s14.65,112.58,14.65,112.58l35.69-2.49s-2.06-89.5-5.52-111c-1.51-9.44,18.64-65,19.35-91.1,1.09-39.62-10.65-35.36-9.77-62.3S667.59,362.34,667.59,362.34Z"/><path class="cls-15" d="M677.07,259.11c10.74,2.38,15.08,2.79,17.12-1.21s-3.42-9.16-3.42-9.16,13,2.58,23.26,3.47c0,0-2.74,14.75,1,18.31s14.3,9.87,14.3,9.87l-15.45,8.26-36.44-12.74Z"/><path class="cls-15" d="M654.94,295.1c.19-8.37-.43-9.32-2.66-9.5s-48.06-9-51.67-15.22-26.62-59.55-29.4-62.1c-2.61-2.39-9.56-10.88-9.43-13.83.15-3.28,4.9,3.83,6.8,3.87,0,0-1.92-6.43-2.75-10.67-1.52-7.7,4.25-15.25,9.75-2.82,2.34,5.28,4.18,7.91,4.32,18.44.09,6.75,31.73,56.8,31.73,56.8l57.13-3,1.4,26.49Z"/><path class="cls-14" d="M668.76,257.07c-1.27,17.94-13.3,35.34-15.1,38.33s-3.11,43.32-3.55,56.88,14.37,17.09,29.49,11.14,34.2,12.64,44.07,1.43,26.72-67.74,14.26-79.09l-8.63-5.37S698,283,685.12,272.34c-6.32-5.22-8-13.23-8-13.23Z"/><path class="cls-16" d="M667.6,339.45a1.51,1.51,0,1,0-1.55,1.45A1.51,1.51,0,0,0,667.6,339.45Z"/><polygon class="cls-7" points="631.52 302.79 649.02 367.13 688.3 383.54 673.9 321.61 631.52 302.79"/><path class="cls-15" d="M737.1,322.15c5-11,3.46-33.24,1.7-33.81,0,0-2-2.73-11.41,5.64-3.77,3.36-8.72,10.88-11.54,21.65,0,0-10.94,37.79-15.42,36.39-26.88-8.41-45.62-9.34-49.2-13.57s-9-2.91-11.37-5l-2.25-8.28a17.53,17.53,0,0,0-3.55,2.89c-4.43,4.95,3.53,20.37,9.7,22.26,6.35,2,7.91.4,11.6,2.13,17.51,8.19,48.48,19.56,53.52,18.37C723.59,367.33,737.1,322.15,737.1,322.15Z"/><path class="cls-15" d="M644.29,335.72c-1.75-3.7-3.61-9-2.29-10.51s2.79,3.06,5.13,6.7,6.44,9.07,6.44,9.07Z"/><path class="cls-15" d="M688.33,214.31a17,17,0,0,0-2.63,11.76c.18,1.63.81,4.6-.84,7.56-2.51,4.51-.51,4.19.26,6.65s-1.32,9.93,4.5,12.78,18.94,2,23.51.77,17.75-13.72,14.94-31.74C725.63,206.41,700.79,194.77,688.33,214.31Z"/><path class="cls-17" d="M698.14,203.6c-11.07,1.84-14.33,5.85-14.54,14.42s11.13,6.91,18.64,10.48c4,1.9,4.09,5.78,6.13,7.43,4.91,4,5.4,17.86,5.4,17.86l12.4-.85,8.56-31.48-16.37-17Z"/><path class="cls-15" d="M704.34,236c5.26-5.7,9.48-5.23,11.26-1.64,2.1,4.22-5.46,7.87-5.46,7.87Z"/><path class="cls-18" d="M81.06,580.51a17.62,17.62,0,0,1-4.64-.62L15.33,563.53a5.38,5.38,0,0,1,0-10.39l51.45-13.78a50,50,0,0,1,25.5-.08l.33.09V505.85a21.81,21.81,0,0,0-16.14-21l-50.78-13.6a10.15,10.15,0,0,1-.39-19.49l55.94-17.45a3,3,0,0,1,2.14.12l68.25,29.68A28,28,0,0,1,171.71,491l-.16,52.48a17.76,17.76,0,0,1-22.25,17.12L98.77,547.35v15.4a17.77,17.77,0,0,1-17.71,17.76ZM19.75,558.33,78,573.94a11.59,11.59,0,0,0,14.59-11.19v-17l-1.89-.5a43.75,43.75,0,0,0-22.35.07Zm79-17.35,52.09,13.63a11.59,11.59,0,0,0,14.53-11.17l.16-52.49a21.82,21.82,0,0,0-15.81-21l-.38-.14L82,440.5,27.13,457.61a4,4,0,0,0,.16,7.66h0l50.78,13.6a28,28,0,0,1,20.7,27Z"/><path class="cls-3" d="M130.08,430.8C111.79,426,94.36,422,97.67,400.53c0,0,3.87-27.61,4.39-36.62,1-16.91-7-67.39-7-67.39h0c-1.48-7.84-4.69-10.27-8-12.39L81.52,282l-60.8,14.78L11.54,306,13,350.67l5.93,43.61-8.17,35.53,8.17,24.82,68.32,20.3,81.66-22.26a5.69,5.69,0,0,0,.05-11Z"/><polygon class="cls-19" points="166.93 472.73 166.93 472.73 165.26 473.17 166.93 472.73"/><path class="cls-20" d="M173.08,464.71V451.45l-4.1,1.1-.09.12-5.46,21,1.83-.49,1.67-.44A8.3,8.3,0,0,0,173.08,464.71Z"/><path class="cls-18" d="M168.88,452.58,115,467a71.8,71.8,0,0,1-37.1,0L36.39,455.9c-14.66-3.92-23-18.58-20.34-33.51,1.64-9.07,3.87-27.61,4.39-36.62,1-16.91-7-67.38-7-67.38h0A18.72,18.72,0,0,1,27,296.85l49.95-13.51a14.3,14.3,0,0,1,12.28,2.32,18.18,18.18,0,0,0-17.08-4.22L66.42,283,24.75,294.13c-9.93,2.66-18.06,13.25-18.06,23.53h0s6.24,49.64,3.83,66C9.28,392,4.93,408.73,2.31,416.88c-7.82,24.22,4.8,50.18,29.35,56.93l46,12.65a71.79,71.79,0,0,0,37.57.13l50.07-13.42,1.67-.44a8.3,8.3,0,0,0,6.15-8V447.1A5.67,5.67,0,0,1,168.88,452.58Z"/><path class="cls-21" d="M109.93,301.43l-3-2.26a9.36,9.36,0,0,0,.54,4.33s2.47,4.19,2.48,4S109.93,301.43,109.93,301.43Z"/><path class="cls-7" d="M245.18,619.05c-9.56,6.16-46.29,1.89-46.29,1.89-19.37-.29-22-1.44-23.6-9.32a36.45,36.45,0,0,1-.46-8.34c.13-3,.45-5.28.45-5.28l28.52,2.23s25.08,6.52,31.28,7.8C249.85,611.07,252.21,614.51,245.18,619.05Z"/><path class="cls-3" d="M198.56,595.43c3.64,3.9,9.12,6.17,7.72,6.49-4.83,1.12-30.47.79-30.12-6,.73-14.2-3.23-14.38-3.36-13.19Z"/><path class="cls-7" d="M171.68,591.35c-13.47-.09-58.56-24.3-53.91-38.18,1.8-5.37,12.06-10.43,12.06-10.43l18.65,17.9s14.14,16.67,20.15,18.65S196.49,591.53,171.68,591.35Z"/><path class="cls-3" d="M149.42,547.26c-5.43,7.88-.17,14.13.71,15.28,3.45,4.51-25.72-14-19.19-20.1,1.2-1.12,5.3-4.19,5.3-4.19Z"/><path class="cls-15" d="M120.51,253c-2.2,10.46-.33,20.25-2.82,29.36-1.48,5.44-1.46,11-10.58,10.4-6.18-.38-13.46-.92-20-8.19-4-4.47-12.52-13.29-3.57-25.88s34.57-14,34.57-14Z"/><path class="cls-15" d="M109.94,289.6s-2.16,11.52,0,17.06c1.54,4-6.51,14.63-20.41,9.87s-8.84-20.06-8.84-20.06l7.83-13.74Z"/><path class="cls-7" d="M119.12,244.44c9.39.09,6.22,13.49-.83,13.08-12.46-.73-12.61,9.69-21.78,11.51-10.26,2-8.43,17.1-8.43,17.1s-4.11,7.34-6.61,4.95-10.74-18.19-11.38-27.61c-.31-4.42,1.34-9.57,4.11-14.11,1-1.54,2.15-.94,2.26-1.51,1.53-7.9,9.7-10.44,20.13-10.6C110.28,237,109,244.35,119.12,244.44Z"/><path class="cls-7" d="M108.21,399.15c25.79,6.45,85,15.44,91,35s-31.62,101.36-43,117.2c0,0-14.43-8.36-25.13-13.76l26.09-83L76.62,417.14l10-27.72S101.31,397.43,108.21,399.15Z"/><path class="cls-7" d="M88.67,415.72s75.25,26.64,84.59,38S201.45,595,201.45,595l-33.66,4.71s-29.21-100.86-31.1-109.33c-4.25-19-63.43-27.56-80.82-34.86S36.5,434.12,36.5,434.12l41.12-19.2Z"/><path class="cls-15" d="M91.46,274c-2.13-4.77-5.07-5.15-7.23-2.15S88,282.4,88,282.4Z"/><path class="cls-3" d="M111.75,306.25l4.58,3.93s-11.61,35.61-7.48,60.66,19.28,33,3.29,45-19.2.12-29.26,4.35-19,4.23-31.6,1.35S74.82,306.25,74.82,306.25l20.82,11.12Z"/><path class="cls-3" d="M92.39,313.6l-11.7,9.62s-3.31-3.33-5.8-10.52c-3.64-10.48,0-17.6,0-17.6l6.18-2.76s1.29,3.11,3.83,9.09C88.73,310.46,92.39,313.6,92.39,313.6Z"/><path class="cls-3" d="M99.36,313.76l5.82,10.74s9.95-11.81,9.24-17.67l-4.49-5.4C110.71,306.62,104.44,310.83,99.36,313.76Z"/><path class="cls-7" d="M107.4,323.74c-5.87,17.58-10.91,41.62-7.05,60.23,3.92,18.94,46.59,41.25,46.59,41.25s-10.07-17.57-16.73-22.11c-5-3.44-15.76-2.6-15.76-31,0-17.31,10.27-44.95,10.27-44.95l-3.46-14.79-7.32-6.13S108.78,319.6,107.4,323.74Z"/><path class="cls-7" d="M77.56,330.43C74.19,394.07,61.06,484,61.06,484s-36.91-16.11-40.77-32.59,11.57-121.26,25-138.26S74.89,295.1,74.89,295.1,78.24,317.62,77.56,330.43Z"/><path class="cls-7" d="M282.78,553.66c2.88,12.63,7.68,24,38.89,11.68a420.87,420.87,0,0,0,54-25.83l26.77-18s-4.26-4.46-14.79-8.43-20.25-1-34.52,2.81-58,13.77-58,13.77Z"/><path class="cls-18" d="M583.18,455,257.47,367.72a30.62,30.62,0,0,0-15.9,0l-186,49.83L44.17,413.8v10.33h0a4.51,4.51,0,0,0,3.41,4.44l335.56,89.89a30.62,30.62,0,0,0,15.9,0l197.83-53a3.46,3.46,0,0,0,2.62-3.42h0V451.72Z"/><path class="cls-3" d="M383.13,508.78,47.57,418.88a4.6,4.6,0,0,1,0-8.88l194-52a30.83,30.83,0,0,1,15.9,0L596.86,449a3.53,3.53,0,0,1,0,6.82L399,508.78A30.83,30.83,0,0,1,383.13,508.78Z"/><path class="cls-18" d="M264.84,404.23a3.69,3.69,0,0,0,0-.47l0-3.78-3.32,1.36-43-11.52a26.8,26.8,0,0,0-13.83,0l-71.32,19.11-.18.07-1.52-1.8V411h0a2.22,2.22,0,0,0,1.69,2.31L178,425.3a26.8,26.8,0,0,0,13.83,0l71.32-19.11a2.22,2.22,0,0,0,1.68-2Z"/><path class="cls-3" d="M133.42,409.36,178,421.3a26.8,26.8,0,0,0,13.83,0l71.32-19.11a2.29,2.29,0,0,0,0-4.42l-44.59-11.94a26.59,26.59,0,0,0-13.83,0l-71.32,19.1A2.29,2.29,0,0,0,133.42,409.36Z"/><path class="cls-7" d="M177.69,419.63l-.66-.17c-.79-.19-.87-.42-.22-.6l2.4-.64a5.67,5.67,0,0,1,1.88,0l.66.16c.79.2.87.43.22.6l-2.4.65A5.67,5.67,0,0,1,177.69,419.63Z"/><path class="cls-7" d="M183,418.2l-.67-.17c-.79-.19-.87-.42-.21-.6l2.39-.64a5.67,5.67,0,0,1,1.88,0l.66.16c.79.2.88.43.22.6l-2.39.65A5.67,5.67,0,0,1,183,418.2Z"/><path class="cls-7" d="M188.28,416.77l-.66-.16c-.79-.2-.87-.43-.22-.6l2.4-.65a5.67,5.67,0,0,1,1.88,0l.66.17c.79.19.87.42.22.6l-2.4.64A5.67,5.67,0,0,1,188.28,416.77Z"/><path class="cls-7" d="M193.58,415.34l-.66-.16c-.79-.2-.88-.43-.22-.6l2.39-.65a5.67,5.67,0,0,1,1.88,0l.66.17c.79.19.88.42.22.6l-2.39.64A5.67,5.67,0,0,1,193.58,415.34Z"/><path class="cls-7" d="M198.87,413.91l-.66-.16c-.79-.2-.87-.43-.22-.6l2.4-.65a5.67,5.67,0,0,1,1.88,0l.66.17c.79.19.87.42.22.6l-2.4.64A5.41,5.41,0,0,1,198.87,413.91Z"/><path class="cls-7" d="M204.17,412.48l-.66-.16c-.79-.2-.88-.42-.22-.6l2.39-.65a5.42,5.42,0,0,1,1.88,0l.66.16c.8.19.88.42.22.6l-2.39.64A5.41,5.41,0,0,1,204.17,412.48Z"/><path class="cls-7" d="M209.46,411.05l-.66-.16c-.79-.19-.87-.42-.22-.6l2.4-.65a5.42,5.42,0,0,1,1.88,0l.66.16c.79.19.87.42.22.6l-2.4.65A5.42,5.42,0,0,1,209.46,411.05Z"/><path class="cls-7" d="M214.76,409.62l-.66-.16c-.79-.19-.88-.42-.22-.6l2.39-.65a5.68,5.68,0,0,1,1.88,0l.67.16c.79.2.87.42.21.6l-2.39.65A5.42,5.42,0,0,1,214.76,409.62Z"/><path class="cls-7" d="M220.05,408.19l-.66-.16c-.79-.19-.87-.42-.22-.6l2.4-.64a5.41,5.41,0,0,1,1.88,0l.66.16c.79.2.87.42.22.6l-2.4.65A5.43,5.43,0,0,1,220.05,408.19Z"/><path class="cls-7" d="M225.35,406.77l-.66-.17c-.79-.19-.88-.42-.22-.6l2.39-.64a5.47,5.47,0,0,1,1.89,0l.66.16c.79.2.87.43.21.6l-2.39.65A5.67,5.67,0,0,1,225.35,406.77Z"/><path class="cls-7" d="M230.64,405.34l-.66-.17c-.79-.19-.87-.42-.21-.6l2.39-.64a5.67,5.67,0,0,1,1.88,0l.66.16c.79.2.88.43.22.6l-2.39.65A5.73,5.73,0,0,1,230.64,405.34Z"/><path class="cls-7" d="M235.94,403.91l-.66-.16c-.79-.2-.87-.43-.22-.6l2.4-.65a5.67,5.67,0,0,1,1.88,0l.66.16c.79.2.87.43.22.6l-2.4.65A5.67,5.67,0,0,1,235.94,403.91Z"/><path class="cls-7" d="M241.24,402.48l-.67-.16c-.79-.2-.87-.43-.21-.6l2.39-.65a5.67,5.67,0,0,1,1.88,0l.66.17c.79.19.88.42.22.6l-2.39.64A5.67,5.67,0,0,1,241.24,402.48Z"/><path class="cls-7" d="M246.53,401.05l-.66-.16c-.79-.2-.87-.43-.22-.6l2.4-.65a5.67,5.67,0,0,1,1.88,0l.66.17c.79.19.87.42.22.6l-2.4.64A5.41,5.41,0,0,1,246.53,401.05Z"/><path class="cls-7" d="M173.68,418.64l-2.88-.71c-.79-.2-.88-.42-.22-.6l2.39-.65a5.42,5.42,0,0,1,1.88,0l2.89.71c.79.19.87.42.22.6l-2.4.64A5.41,5.41,0,0,1,173.68,418.64Z"/><path class="cls-7" d="M179,417.21l-2.89-.71c-.79-.19-.87-.42-.22-.6l2.4-.65a5.42,5.42,0,0,1,1.88,0L183,416c.79.19.87.42.21.6l-2.39.64A5.41,5.41,0,0,1,179,417.21Z"/><path class="cls-7" d="M184.27,415.78l-2.88-.71c-.79-.19-.88-.42-.22-.6l2.39-.64a5.41,5.41,0,0,1,1.88,0l2.89.71c.79.19.88.42.22.6l-2.39.65A5.74,5.74,0,0,1,184.27,415.78Z"/><path class="cls-7" d="M189.57,414.35l-2.89-.71c-.79-.19-.87-.42-.22-.6l2.4-.64a5.41,5.41,0,0,1,1.88,0l2.89.71c.79.19.87.42.22.6l-2.4.65A5.42,5.42,0,0,1,189.57,414.35Z"/><path class="cls-7" d="M194.87,412.92l-2.89-.71c-.79-.19-.88-.42-.22-.6l2.39-.64a5.67,5.67,0,0,1,1.88,0l2.89.71c.79.2.88.42.22.6l-2.39.65A5.42,5.42,0,0,1,194.87,412.92Z"/><path class="cls-7" d="M200.16,411.5l-2.89-.72c-.79-.19-.87-.42-.22-.6l2.4-.64a5.67,5.67,0,0,1,1.88,0l2.89.71c.79.2.87.43.22.6l-2.4.65A5.67,5.67,0,0,1,200.16,411.5Z"/><path class="cls-7" d="M205.46,410.07l-2.89-.71c-.79-.2-.88-.43-.22-.6l2.39-.65a5.73,5.73,0,0,1,1.89,0l2.88.71c.79.2.88.43.22.6l-2.39.65A5.67,5.67,0,0,1,205.46,410.07Z"/><path class="cls-7" d="M210.75,408.64l-2.89-.71c-.79-.2-.87-.43-.22-.6l2.4-.65a5.67,5.67,0,0,1,1.88,0l2.89.71c.79.2.87.43.22.6l-2.4.65A5.67,5.67,0,0,1,210.75,408.64Z"/><path class="cls-7" d="M216.05,407.21l-2.89-.71c-.79-.2-.87-.43-.22-.6l2.39-.65a5.73,5.73,0,0,1,1.89,0l2.88.72c.79.19.88.42.22.6l-2.39.64A5.67,5.67,0,0,1,216.05,407.21Z"/><path class="cls-7" d="M221.34,405.78l-2.89-.71c-.79-.2-.87-.42-.21-.6l2.39-.65a5.42,5.42,0,0,1,1.88,0l2.89.71c.79.19.87.42.22.6l-2.4.64A5.67,5.67,0,0,1,221.34,405.78Z"/><path class="cls-7" d="M226.64,404.35l-2.89-.71c-.79-.19-.87-.42-.22-.6l2.4-.65a5.43,5.43,0,0,1,1.88,0l2.88.71c.79.19.88.42.22.6l-2.39.64A5.41,5.41,0,0,1,226.64,404.35Z"/><path class="cls-7" d="M231.93,402.92l-2.89-.71c-.79-.19-.87-.42-.21-.6l2.39-.65a5.68,5.68,0,0,1,1.88,0l2.89.71c.79.19.87.42.22.6l-2.4.64A5.41,5.41,0,0,1,231.93,402.92Z"/><path class="cls-7" d="M237.29,401.48l-2.89-.71c-.79-.2-.87-.43-.22-.6l7.63-2.06a5.41,5.41,0,0,1,1.88,0l2.89.71c.79.2.87.42.22.6l-7.63,2.06A5.67,5.67,0,0,1,237.29,401.48Z"/><path class="cls-7" d="M167.54,416.92l-2.89-.72c-.79-.19-.87-.42-.22-.6l4.17-1.12a5.73,5.73,0,0,1,1.89,0l2.88.71c.79.2.88.43.22.6l-4.17,1.13A5.67,5.67,0,0,1,167.54,416.92Z"/><path class="cls-7" d="M174.61,415l-2.89-.71c-.79-.2-.87-.43-.21-.6l2.39-.65a5.67,5.67,0,0,1,1.88,0l2.89.71c.79.2.87.43.22.6l-2.4.65A5.67,5.67,0,0,1,174.61,415Z"/><path class="cls-7" d="M179.91,413.58l-2.89-.71c-.79-.2-.87-.43-.22-.6l2.4-.65a5.67,5.67,0,0,1,1.88,0l2.88.71c.79.2.88.43.22.6l-2.39.65A5.67,5.67,0,0,1,179.91,413.58Z"/><path class="cls-7" d="M185.2,412.15l-2.89-.71c-.79-.2-.87-.43-.21-.6l2.39-.65a5.67,5.67,0,0,1,1.88,0l2.89.72c.79.19.87.42.22.6l-2.4.64A5.67,5.67,0,0,1,185.2,412.15Z"/><path class="cls-7" d="M190.5,410.72l-2.89-.71c-.79-.2-.87-.42-.22-.6l2.4-.65a5.43,5.43,0,0,1,1.88,0l2.88.71c.8.19.88.42.22.6l-2.39.64A5.41,5.41,0,0,1,190.5,410.72Z"/><path class="cls-7" d="M195.79,409.29l-2.89-.71c-.79-.19-.87-.42-.21-.6l2.39-.65a5.42,5.42,0,0,1,1.88,0l2.89.71c.79.19.87.42.22.6l-2.4.64A5.41,5.41,0,0,1,195.79,409.29Z"/><path class="cls-7" d="M201.09,407.86l-2.89-.71c-.79-.19-.87-.42-.22-.6l2.4-.64a5.41,5.41,0,0,1,1.88,0l2.89.71c.79.19.87.42.21.6l-2.39.65A5.68,5.68,0,0,1,201.09,407.86Z"/><path class="cls-7" d="M206.38,406.43l-2.88-.71c-.79-.19-.88-.42-.22-.6l2.39-.64a5.41,5.41,0,0,1,1.88,0l2.89.71c.79.19.87.42.22.6l-2.4.65A5.43,5.43,0,0,1,206.38,406.43Z"/><path class="cls-7" d="M211.68,405l-2.89-.71c-.79-.19-.87-.42-.22-.6l2.4-.64a5.67,5.67,0,0,1,1.88,0l2.89.71c.79.2.87.42.21.6l-2.39.65A5.42,5.42,0,0,1,211.68,405Z"/><path class="cls-7" d="M217,403.58l-2.88-.72c-.79-.19-.88-.42-.22-.6l2.39-.64a5.67,5.67,0,0,1,1.88,0l2.89.71c.79.2.88.43.22.6l-2.39.65A5.73,5.73,0,0,1,217,403.58Z"/><path class="cls-7" d="M222.27,402.15l-2.89-.71c-.79-.2-.87-.43-.22-.6l2.4-.65a5.67,5.67,0,0,1,1.88,0l2.89.71c.79.2.87.43.22.6l-2.4.65A5.67,5.67,0,0,1,222.27,402.15Z"/><path class="cls-7" d="M227.57,400.72l-2.89-.71c-.79-.2-.88-.43-.22-.6l2.39-.65a5.67,5.67,0,0,1,1.88,0l2.89.71c.79.2.88.43.22.6l-2.39.65A5.67,5.67,0,0,1,227.57,400.72Z"/><path class="cls-7" d="M232.92,399.27l-2.89-.71c-.79-.19-.87-.42-.21-.6l5.85-1.58a5.43,5.43,0,0,1,1.88,0l2.88.71c.79.19.88.42.22.6l-5.85,1.57A5.41,5.41,0,0,1,232.92,399.27Z"/><path class="cls-7" d="M161.05,415.32l-2.89-.71c-.79-.2-.88-.43-.22-.6l8-2.15a5.67,5.67,0,0,1,1.88,0l2.89.71c.79.2.87.42.21.6l-8,2.15A5.67,5.67,0,0,1,161.05,415.32Z"/><path class="cls-7" d="M171.91,412.39l-2.88-.72c-.79-.19-.88-.42-.22-.6l2.39-.64a5.67,5.67,0,0,1,1.88,0l2.89.71c.79.2.87.43.22.6l-2.4.65A5.67,5.67,0,0,1,171.91,412.39Z"/><path class="cls-7" d="M177.21,411l-2.89-.71c-.79-.2-.87-.43-.22-.6l2.4-.65a5.67,5.67,0,0,1,1.88,0l2.89.71c.79.2.87.43.21.6l-2.39.65A5.67,5.67,0,0,1,177.21,411Z"/><path class="cls-7" d="M182.5,409.53l-2.88-.71c-.79-.2-.88-.43-.22-.6l2.39-.65a5.67,5.67,0,0,1,1.88,0l2.89.71c.79.2.88.43.22.6l-2.39.65A5.73,5.73,0,0,1,182.5,409.53Z"/><path class="cls-7" d="M187.8,408.1l-2.89-.71c-.79-.2-.87-.43-.22-.6l2.4-.65a5.67,5.67,0,0,1,1.88,0l2.89.72c.79.19.87.42.22.6l-2.4.64A5.67,5.67,0,0,1,187.8,408.1Z"/><path class="cls-7" d="M193.1,406.67l-2.89-.71c-.79-.2-.88-.42-.22-.6l2.39-.65a5.42,5.42,0,0,1,1.88,0l2.89.71c.79.19.88.42.22.6l-2.39.64A5.67,5.67,0,0,1,193.1,406.67Z"/><path class="cls-7" d="M198.39,405.24l-2.89-.71c-.79-.19-.87-.42-.22-.6l2.4-.65a5.42,5.42,0,0,1,1.88,0l2.89.71c.79.19.87.42.22.6l-2.4.64A5.41,5.41,0,0,1,198.39,405.24Z"/><path class="cls-7" d="M203.69,403.81l-2.89-.71c-.79-.19-.88-.42-.22-.6l2.39-.65a5.74,5.74,0,0,1,1.89,0l2.88.71c.79.19.88.42.22.6l-2.39.64A5.41,5.41,0,0,1,203.69,403.81Z"/><path class="cls-7" d="M209,402.38l-2.89-.71c-.79-.19-.87-.42-.22-.6l2.4-.64a5.41,5.41,0,0,1,1.88,0l2.89.71c.79.19.87.42.22.6l-2.4.65A5.42,5.42,0,0,1,209,402.38Z"/><path class="cls-7" d="M214.28,401l-2.89-.71c-.79-.19-.87-.42-.22-.6l2.39-.64a5.47,5.47,0,0,1,1.89,0l2.88.71c.79.2.88.42.22.6l-2.39.65A5.42,5.42,0,0,1,214.28,401Z"/><path class="cls-7" d="M219.57,399.52l-2.89-.71c-.79-.19-.87-.42-.21-.6l2.39-.64a5.67,5.67,0,0,1,1.88,0l2.89.71c.79.2.87.43.22.6l-2.4.65A5.42,5.42,0,0,1,219.57,399.52Z"/><path class="cls-7" d="M224.85,398.1l-2.89-.71c-.79-.2-.87-.42-.21-.6l7.42-2a5.68,5.68,0,0,1,1.88,0l2.89.71c.79.19.88.42.22.6l-7.43,2A5.41,5.41,0,0,1,224.85,398.1Z"/><path class="cls-7" d="M154.55,413.72l-2.88-.71c-.79-.19-.88-.42-.22-.6l4.17-1.13a5.42,5.42,0,0,1,1.88,0l2.89.71c.79.19.87.42.22.6l-4.18,1.12A5.41,5.41,0,0,1,154.55,413.72Z"/><path class="cls-7" d="M161.63,411.81l-2.89-.71c-.79-.19-.87-.42-.22-.6l2.4-.65a5.42,5.42,0,0,1,1.88,0l2.89.71c.79.19.87.42.21.6l-2.39.64A5.41,5.41,0,0,1,161.63,411.81Z"/><path class="cls-7" d="M166.92,410.38l-2.88-.71c-.79-.19-.88-.42-.22-.6l2.39-.64a5.41,5.41,0,0,1,1.88,0l2.89.71c.79.19.87.42.22.6l-2.4.65A5.68,5.68,0,0,1,166.92,410.38Z"/><path class="cls-7" d="M172.22,409l-2.89-.71c-.79-.19-.87-.42-.22-.6l2.4-.64a5.41,5.41,0,0,1,1.88,0l2.89.71c.79.19.87.42.21.6l-2.39.65A5.42,5.42,0,0,1,172.22,409Z"/><path class="cls-7" d="M177.51,407.52l-2.88-.71c-.79-.19-.88-.42-.22-.6L198,399.86a5.67,5.67,0,0,1,1.88,0l2.89.71c.79.2.88.42.22.6l-23.55,6.36A5.48,5.48,0,0,1,177.51,407.52Z"/><path class="cls-7" d="M204,400.38l-2.89-.71c-.79-.2-.87-.42-.22-.6l2.4-.65a5.42,5.42,0,0,1,1.88,0l2.89.71c.79.19.87.42.22.6l-2.4.64A5.41,5.41,0,0,1,204,400.38Z"/><path class="cls-7" d="M209.29,399l-2.89-.71c-.79-.19-.87-.42-.22-.6l2.39-.65a5.48,5.48,0,0,1,1.89,0l2.88.71c.79.19.88.42.22.6l-2.39.64A5.41,5.41,0,0,1,209.29,399Z"/><path class="cls-7" d="M214.58,397.52l-2.89-.71c-.79-.19-.87-.42-.21-.6l2.39-.64a5.41,5.41,0,0,1,1.88,0l2.89.71c.79.19.87.42.22.6l-2.4.65A5.68,5.68,0,0,1,214.58,397.52Z"/><path class="cls-7" d="M219.94,396.08l-2.89-.71c-.79-.2-.87-.43-.22-.6l5.85-1.58a5.41,5.41,0,0,1,1.88,0l2.89.71c.79.2.87.42.22.6l-5.85,1.58A5.67,5.67,0,0,1,219.94,396.08Z"/><path class="cls-18" d="M575.41,444.09a.85.85,0,0,1-.23,0L356.64,385.51a.88.88,0,1,1,.45-1.7l218.54,58.55a.88.88,0,0,1-.22,1.73Z"/><path class="cls-18" d="M580.85,674.27a58.6,58.6,0,0,1-15.23-2l-42.8-11.46A30.88,30.88,0,0,1,500,631V577.73A17.33,17.33,0,0,1,521.79,561l53.6,14.36a21.59,21.59,0,0,0,6.83.7V555.7A17.34,17.34,0,0,1,604,539l55.08,15.35a4,4,0,0,1,0,7.74l-70.71,19.2V609a24.7,24.7,0,0,0,18.29,23.82l44.25,11.86a6.68,6.68,0,0,1,0,12.9l-54.85,14.69A58.59,58.59,0,0,1,580.85,674.27ZM517.28,566.55a11.19,11.19,0,0,0-11.15,11.18V631a24.71,24.71,0,0,0,18.28,23.83l42.8,11.46a52.75,52.75,0,0,0,27.27,0l54.84-14.69a.52.52,0,0,0,0-1l-44.24-11.86A30.87,30.87,0,0,1,582.22,609V582.21a27.85,27.85,0,0,1-8.42-.91l-53.6-14.36A11.27,11.27,0,0,0,517.28,566.55Zm82.25-22a11.19,11.19,0,0,0-11.15,11.19v19.16L650,558.14l-47.53-13.25A11.41,11.41,0,0,0,599.53,544.51Zm58,11.59Z"/><path class="cls-22" d="M556.14,516l-55.21,14.79c-8.82,2.36-8.82,14.88,0,17.24l89.89,24.08,1.38-54.9L587.69,516A60.93,60.93,0,0,0,556.14,516Z"/><path class="cls-18" d="M675.45,408.44h0a4.77,4.77,0,0,0-.51-.13,5.61,5.61,0,0,0-2.61,0l-2.23.6L626,420.73a33.08,33.08,0,0,0-23,22.06c-6.18,19.72-15.45,50.95-16.8,64.92l0,.28c-.39,4.46,1.61,36.48,2.45,44.46a13.57,13.57,0,0,1-17,14.52l-49.22-13.19-18.39-4.93-3-.8a8.73,8.73,0,0,1-6.61-8.62v19a9.19,9.19,0,0,0,.68,3.35,8.63,8.63,0,0,0,5.93,5.13l74,19.82h0A21.52,21.52,0,0,0,591,584.79a22.29,22.29,0,0,0,4.64-3.43A21.55,21.55,0,0,0,602,562c-3.27-18.86-6.49-40.74-6.11-51.7.48-13.8,7.95-44.66,13.16-64.74a33.09,33.09,0,0,1,23.47-23.64l47.87-12.23Z"/><path class="cls-4" d="M605.22,437.31l0,0,0,.08Z"/><path class="cls-3" d="M686.4,424.84c3-11.53-4.5-16.24-8.69-15.15l-45.37,12.16A33,33,0,0,0,609,445.57c-5.21,20.08-12.68,50.94-13.16,64.74-.38,11,2.84,32.84,6.11,51.7a21.7,21.7,0,0,1-11,22.78,22.13,22.13,0,0,1-4.47,1.84l76.59-20.51h0a21.76,21.76,0,0,0,16.24-24.83c-3.26-18.86-6.49-40.74-6.11-51.7C673.71,475.78,681.18,444.92,686.4,424.84Z"/><path class="cls-15" d="M190,372.78s16.4-1.68,20.86-.59,14.66,14.89,12.74,21.29-15-4.83-18.52-6.79,4.22,4.17,4.56,6.14-2.62,3.08-6.27.49c-5.57-3.95-20.85-8.67-20.85-8.67Z"/><path class="cls-3" d="M184.06,368.81l11.36,3.49c-3.21,1.79-4.64,12.62-4.64,12.62h-4.39l4.14,1.33v2.88l-12.69-1.47-3.2-14.05Z"/><path class="cls-7" d="M189.77,381.77a1.16,1.16,0,0,0-2.22.68,1.16,1.16,0,0,0,2.22-.68Z"/><path class="cls-23" d="M208.15,367.62l-20.24,52.74a1.9,1.9,0,0,0,2.27,2.51l78.48-21a8.92,8.92,0,0,0,6-5.49L295,343.61a1.9,1.9,0,0,0-2.27-2.51l-78.48,21A8.93,8.93,0,0,0,208.15,367.62Z"/><path class="cls-7" d="M121.26,312.38c8.23,12,27.79,42.5,33.8,45.9,8.5,4.82,14.74,5.1,30.91,11,0,0-8.37,5-6,19.59,0,0-29.51-4.74-33.35-5.77-10.66-2.85-34.11-30-34.11-30l5.13-22.52Z"/><path class="cls-24" d="M140.93,427.84c-7.49,4.57-2,6.41,7.65,9.13s22.37,1.56,20.79-2.49-15-11.24-20.38-10.28A16.15,16.15,0,0,0,140.93,427.84Z"/><path class="cls-15" d="M116.33,416.42s6.69,12.9,12,14.35c6.45,1.78,11.63,8.57,19.78,2.54,3.28-2.44,5.41,3.3,5.41,4.68,0,2,9.85,3.91,10.56-3a13,13,0,0,0-3.16-10.36c-2.48-2.67-6.49-4.47-12.32-4.59-12-.24-12.75.92-15.1-.36s-5.91-3.64-5.91-3.64Z"/><path class="cls-3" d="M121.27,432.55l9,2.4,1-5.36-6.3-3.63,7.45.27s3.47-5,6.68-6.11l-4.92-1.82-6-.8-7.49,7.4v7.2Z"/><path class="cls-7" d="M57.27,309c10.24,10.12,14.27,60.36,28,70,8.13,5.73,50.15,39.73,50.15,39.73s-3.45-1.58-7.78,1.79c-6.2,4.82-7,12.46-7,12.46s-49.3-20.58-59.36-32.42c-21.29-25.06-22.15-59-18.73-73.75C46.66,309,53.59,305.38,57.27,309Z"/><path class="cls-15" d="M158,422.33c5.6,3.24,7.37,5.19,9,7.37s1.68,4,0,4.06-6.45-3.63-6.45-3.63Z"/><polygon class="cls-10" points="391.14 457.3 343.36 444.52 401.37 428.88 449.29 441.72 391.14 457.3"/><path class="cls-3" d="M397,432.82l-34.25,16s28.21,7.31,41.39,6.66c1.24-.06,33.39-15.91,33.39-15.91Z"/><path class="cls-7" d="M418.1,463.57l2.48,26.48c0,1.1,3.08,2,6.88,2s6.87-.9,6.87-2l2.48-26.48Z"/><path class="cls-10" d="M435.51,461.43v.36a24.15,24.15,0,0,0-8.07-1.17c-3.77,0-7.06.6-8.8,1.49v-.68h-1.32v2.14c0,1.62,4.53,2.94,10.12,2.94s10.13-1.32,10.13-2.94v-2.14Z"/><path class="cls-25" d="M437.57,461.43c0-1.63-4.53-2.94-10.13-2.94s-10.12,1.31-10.12,2.94,4.53,2.94,10.12,2.94S437.57,463.05,437.57,461.43Z"/><path class="cls-10" d="M436.07,461.05l-1.84-1.86H431a29.44,29.44,0,0,0-7,0h-3.27l-1.34,1.46a1.82,1.82,0,0,0-.36.38v0h0a.86.86,0,0,0-.13.43c0,1.39,3.86,2.51,8.62,2.51s8.63-1.12,8.63-2.51a.86.86,0,0,0-.13-.43Z"/><path class="cls-25" d="M434.51,459.77c0-1.13-3.16-2-7.07-2-3,0-5.59.54-6.6,1.32a1,1,0,0,0-.47.73c0,1.13,3.17,2.05,7.07,2.05S434.51,460.9,434.51,459.77Z"/><path class="cls-10" d="M432.06,459c0,.53-1.33,1-3,1s-3-.44-3-1,1.33-1,3-1S432.06,458.44,432.06,459Z"/><path class="cls-7" d="M399.31,652.63c-.13,6.81-2.26,7.7-2.86,15.9s14.55,4.52,21.83,4.52,23.71,0,21.53-6.53-18.16-4.9-22.6-10c-6.93-8-3.9-9.72-3.9-9.72Z"/><path class="cls-7" d="M369,643.68c-.69,7.28-2.06,16.5.6,18.4s32.3-3.4,36.77-10.89-4.24-7-8.65-6.32-16.5-4.19-16.5-4.19Z"/><path class="cls-7" d="M361.6,602.74c1.11,26.26,4.44,42.5,4.44,42.5s22.08-.54,33.44-9.21c0,0,14.88-84.3,14.89-92.47C414.41,517.5,359.39,550.51,361.6,602.74Z"/><path class="cls-7" d="M400,561c0,13.27-3.09,98.4-3.09,98.4S422,656.94,432,646.76c0,0,14.73-84.3-.3-108.58C415.43,511.91,400,547.4,400,561Z"/><path class="cls-18" d="M319,704.94a59,59,0,0,1-15.22-2l-54.85-14.7a6.68,6.68,0,0,1,0-12.9l44.25-11.85a24.72,24.72,0,0,0,18.28-23.83V611.91l-70.71-19.19h0a4,4,0,0,1,0-7.74l55-15.34a17.33,17.33,0,0,1,21.85,16.73v20.35a21.31,21.31,0,0,0,6.83-.7l53.61-14.36a17.33,17.33,0,0,1,21.82,16.74v53.3A30.87,30.87,0,0,1,377,691.47l-42.8,11.47A59.08,59.08,0,0,1,319,704.94Zm-1.38-92.05v26.77a30.87,30.87,0,0,1-22.85,29.78l-44.25,11.85a.52.52,0,0,0,0,1L305.37,697a52.72,52.72,0,0,0,27.26,0l42.8-11.47a24.7,24.7,0,0,0,18.29-23.82V608.4a11.18,11.18,0,0,0-14.07-10.79L326.05,612A27.88,27.88,0,0,1,317.62,612.89Zm-67.73-24.07,61.57,16.71V586.37a11.17,11.17,0,0,0-14.06-10.79Z"/><path class="cls-26" d="M343.71,543.32l55.21,14.79c8.82,2.36,8.82,14.87,0,17.23L309,599.43l-1.38-54.9,4.52-1.21A60.93,60.93,0,0,1,343.71,543.32Z"/><path class="cls-27" d="M301.6,472.18c39.35-6.45,62.81-13.39,70.9-18.78s12.75-7.49,25.19-7.59c6.64-.05,12.63,6.4,11.45,8.18s-6-.89-9.28,0-6,6.81-12.83,7.5-8.19-.25-10.76.76-47.7,23.28-62.38,25.17S301.6,472.18,301.6,472.18Z"/><path class="cls-7" d="M261.79,570.33c2.88,12.63,41.8,31.32,86.58,15.37a574.63,574.63,0,0,0,57.16-24l21.91-29s-4.26-4.46-14.79-8.43-20.24-1-34.51,2.81-56.33,23-56.33,23Z"/><path class="cls-3" d="M276.64,419.43c-24,12.81-3.58,75.14-19.21,102.89-28.55,50.69,39.07,65.62,50.22,59.89s12.69-28.36,30.54-30.91c4.27-.61,25.19-4.54,15.28-9C333.85,533.59,336.3,524,335.84,521c-3.45-22.74,7-56.88,1.49-73.89-3.8-11.82-15.89-15.52-15.89-15.52l-42.65-11.38Z"/><path class="cls-27" d="M278.79,420.38c-2.15,15.34,25.75,5.79,42.65,11.25,0,0-13.29-1.19-11.57-15.48,1.16-9.64-15.51-15.24-15.51-15.24S292,417.3,288.2,419.24C283.93,421.44,278.79,420.38,278.79,420.38Z"/><path class="cls-27" d="M284.58,386.82c3,22,20.84,30.58,28.1,28.61,3.94-1.07,8.43-8.24,10-17.23.41-2.4-.72-4.12-.79-6.7,0-.78.86-5.29.78-6.08-.45-4.79-1.5-6.75-4.38-11.2C306.26,355.67,282.41,370.83,284.58,386.82Z"/><path class="cls-3" d="M331.73,552.19a1,1,0,0,1-.37-.08.89.89,0,0,1-.43-1.17c1-2.23,2.38-9.4.22-12.59a3.85,3.85,0,0,0-3.7-1.62c-15,.81-53.07-8.2-71.59-20.82a.87.87,0,0,1-.24-1.22.89.89,0,0,1,1.23-.23c19.43,13.23,57.35,21.22,70.5,20.51a5.64,5.64,0,0,1,5.26,2.4c2.69,4,1,11.94-.08,14.31A.89.89,0,0,1,331.73,552.19Z"/><path class="cls-3" d="M330.77,534a2.48,2.48,0,0,0-1.51.46,1.72,1.72,0,0,0-.74,2.09,1.37,1.37,0,0,0,1.47.87c.28-.07,1.22-.94,2.44-3h0A3.7,3.7,0,0,0,330.77,534Z"/><path class="cls-27" d="M391.53,457.44c7.4-2.07,11.55-3,11.47,0s-16.28,4.49-18.94,4.27S391.53,457.44,391.53,457.44Z"/><path class="cls-18" d="M224.4,435.74h0l.5-.14a5.52,5.52,0,0,1,2.62,0l2.23.6L273.9,448a33.06,33.06,0,0,1,23,22.06c6.19,19.73,15.46,51,16.81,64.92,0,.1,0,.19,0,.29.4,4.46-1.61,36.47-2.44,44.46a13.57,13.57,0,0,0,17,14.51l49.22-13.19,18.39-4.92,3-.81a8.73,8.73,0,0,0,6.61-8.62v19a9.24,9.24,0,0,1-.68,3.36,8.65,8.65,0,0,1-5.93,5.13L325,614h0a21.48,21.48,0,0,1-16.05-1.93,22,22,0,0,1-4.65-3.42,21.58,21.58,0,0,1-6.33-19.35c3.26-18.87,6.49-40.75,6.11-51.7-.48-13.81-7.95-44.67-13.17-64.74a33.09,33.09,0,0,0-23.47-23.65L219.49,437Z"/><path class="cls-4" d="M294.63,464.6l0,0,0,.07Z"/><path class="cls-3" d="M213.45,452.14c-3-11.53,4.5-16.25,8.69-15.15l45.37,12.15a33,33,0,0,1,23.32,23.73c5.22,20.07,12.69,50.93,13.17,64.74.38,10.95-2.85,32.83-6.11,51.7a21.66,21.66,0,0,0,11,22.77,21.16,21.16,0,0,0,4.47,1.85l-76.59-20.52h0a21.78,21.78,0,0,1-16.24-24.84c3.26-18.86,6.49-40.74,6.1-51.69C226.13,503.07,218.66,472.21,213.45,452.14Z"/><path class="cls-7" d="M289.65,354.41c-4.66,7.16-10.88.42-14.19,9.7s-4.72,5.77-10.3,11.15-.15,14,6.44,15.73,7.59,5.16,6,10.21,7.72,9.44,10,9.11,10.55-2.24,14,1.06,8.67-7.58,8.17-10.46.79-10.15,5.91-10.89,7.76-4,10.45-5.61c3.7-2.24,11.4-13.57,0-20.08-6-3.45-9-5.34-13.23-9.92S293.81,348,289.65,354.41Z"/><path class="cls-27" d="M309.81,391.36c-2.67,2.41-3.89,7-1.05,9.06,1.05.75,3.49-1.27,3.49-1.27s3.47-6.46,2.57-7.76S310.47,390.78,309.81,391.36Z"/><path class="cls-27" d="M438.84,477.81c-1.27-7-5.2,2.55-17.48-.78,0,0-1.68-.4-2.1-1.13h0s-.25-2.74-.36-3.85c0,0-1.1.76-2.14,1.38-2.32,1.37-4.41,7.41-4.41,7.41h0c-.25.3-.51.61-.77.94s-.56.74-.84,1.13l-48.44,7.47s-21.95-37-28.79-47c-7-10.27-16.16,19.34-12.11,25.39,8.48,12.71,20.45,40.82,33.57,39.71,9.84-.84,42.88-11.88,62.28-18.42,1.36-.45,5,.63,6.31.63,7.18,0,11.19-1.85,13.25-5.05C438.26,483.39,439.46,481.2,438.84,477.81Z"/><path class="cls-6" d="M306.12,147.47l42.16-19.65h-2.52L381.92,150a2.52,2.52,0,0,0,3-.39L422,106.86l-3.92-.5,35.29,56.82a2.54,2.54,0,0,0,3.43.9L493,142.7l-3.42-.9,36.18,60.37a2.54,2.54,0,0,0,3.93.51l6-5.29c2.41-2.13-1.13-5.66-3.54-3.53l-6,5.28,3.93.51-36.18-60.37a2.55,2.55,0,0,0-3.42-.9l-36.18,21.38,3.42.9-35.3-56.83a2.51,2.51,0,0,0-3.92-.5L381.42,146l3-.39L350.65,125c-1.36-.84-2.61-1.94-4.3-1.7-1.34.18-3,1.35-4.15,1.9l-21.57,10.05-17,7.94c-2.92,1.36-.38,5.67,2.52,4.32Z"/></g></g></svg>