<svg xmlns="http://www.w3.org/2000/svg" viewBox="0 0 180.9 222"><defs><style>.cls-1{fill:#fff;}.cls-2{fill:#000b73;}.cls-3{fill:#51273a;}.cls-4{fill:#ff457a;}.cls-5{fill:#e3e3e3;}.cls-6{fill:#ededed;}</style></defs><title>win-more-customaers-img</title><g id="Layer_2" data-name="Layer 2"><g id="Layer_1-2" data-name="Layer 1"><polygon class="cls-1" points="162 192.38 164.01 194.51 167.8 195.52 167.8 192.11 166.23 189 162.11 189.43 162 192.38"/><polygon class="cls-1" points="166.88 212.56 168.9 214.69 172.69 215.69 172.69 212.28 171.12 209.18 167 209.6 166.88 212.56"/><path class="cls-2" d="M92.18,176.69c23.24,15.69,40-19.33,46.71-23.89L162,192.38a5.92,5.92,0,0,1,4.24-3.38s-15.33-41.25-19.56-47-6.74-5.84-13.93-4.08-19.63,19.4-27.93,21.34c-4.15,1-8.87-3.34-14,5.79S92.18,176.69,92.18,176.69Z"/><path class="cls-3" d="M60.59,138.41l6-3.48-20.46,3-1-5.17s25.64-9,32.16-8c3,.44,2.1,4.68.62,8.68-1.06,2.85-6.36,11.63-6.36,11.63Z"/><path class="cls-2" d="M86.83,184.58c15.31,7.92,38.51-6.24,45.24-10.8l34.81,38.78a5.9,5.9,0,0,1,4.24-3.38s-27-40.45-31.27-46.18-6.74-5.85-13.93-4.09S104.3,164,104.3,164a21.1,21.1,0,0,0-15,10.15C84.14,183.27,86.83,184.58,86.83,184.58Z"/><path class="cls-3" d="M32.36,155l-6.09,3s1.83-4,7.36-9.39a83.54,83.54,0,0,0,6.8-7.1l-4.4-3s-15.64,13.55-19.46,19.76S12,168.83,19.8,167.8a159,159,0,0,1,16.48-1.12l9.25-5.74-5.15-7.55-6.1.44Z"/><path class="cls-4" d="M100.32,156.19c-5.36-2.95-3.92,3-13.6-2.42-6.88-3.87-11-6.88-15-8.7l-.3-.13a8.63,8.63,0,0,0-3.63-5.35c-4.76-3.38-7.51-1.11-7.51-1.11L51.06,143l-.57.16a19.31,19.31,0,0,0-7.88,4.52h0c-6.9,5.54-9.75,7-10.25,7.27.42-.17,2.35-.72,4.64,2.82,2.59,4,.9,6.85-.72,8.91A32.52,32.52,0,0,1,54,172.54c13,8.92,21.92,15.07,26.89,16.46,0,0,6,0,9.38-9.62,2.24-6.49,4.23-16.1,14.57-20.11C104.81,159.27,101.8,157,100.32,156.19Z"/><path class="cls-1" d="M32.36,155l-.08,0Z"/><path class="cls-3" d="M41.16,148.94c3.8-1.82,11.84-1.23,15.3-2.9s-2.91-4.15-2.91-4.15-4.43,1.85-5.09-.48S41.83,144,41.83,144a9.34,9.34,0,0,1,.3,3.22A4.21,4.21,0,0,1,41.16,148.94Z"/><path class="cls-3" d="M41.83,143.88c5-1.74,7.86-2.79,7.45-4.45-.35-1.4-3-11.5-7.65-12.89s-7.5,8.81-5.48,12.56A10.29,10.29,0,0,0,41.83,143.88Z"/><path class="cls-2" d="M42.05,144.92c.79,8.83-7.44-3.85-10.7-2.89L24,147.77s-7.86,5.82-11.3,6.49C3.19,156.12.23,148.53,0,145.53c-.88-13.39,13.53-.3,15.88-10.61,2.2-9.65,8.49-2.89,11-7.52,3.31-6,5.86,1.82,9.2-.44s8.75-4.15,11.08,2.67a27.82,27.82,0,0,1,.33,4.55s-2.86-5.93-5-5.67-4.29,6.41-3.56,9.16c0,0-2,0-1.22,1.59a1.92,1.92,0,0,0,2.34,1.11S41.91,143.3,42.05,144.92Z"/><path class="cls-2" d="M168.69,213.64c-.72,2-1.25,3.75,2.43,5.09.89.32,3.1,1.7,6.12,2.92s5.12-1.08,2.41-2.51a15.48,15.48,0,0,1-4.8-4.45,5,5,0,0,1-.61-2.13c.3-1.46-1.86-.89-2.39.56l-.2.76s-2.07,1.24-2.41.81S168.78,213.4,168.69,213.64Z"/><path class="cls-2" d="M163.8,193.47c-.72,1.94-1.25,3.74,2.43,5.08.89.33,3.1,1.71,6.12,2.93s5.12-1.08,2.41-2.52a15.48,15.48,0,0,1-4.8-4.45,5,5,0,0,1-.61-2.13c.3-1.46-1.86-.89-2.39.57l-.2.76s-2.07,1.24-2.41.8S163.89,193.22,163.8,193.47Z"/><polygon class="cls-1" points="97.76 94.58 97.76 39.84 166.76 0 166.76 53.25 104.52 89.18 97.76 115.33 97.76 94.58"/><polygon class="cls-5" points="97.76 39.84 97.76 53.54 166.76 13.7 166.76 0 97.76 39.84"/><polygon class="cls-4" points="114.34 55.27 114.26 52.01 115.82 51.14 115.9 54.39 114.34 55.27"/><polygon class="cls-4" points="115.75 54.48 115.67 51.23 123.52 46.83 123.6 50.08 115.75 54.48"/><polygon class="cls-6" points="123.6 50.08 123.52 46.83 154.44 29.51 154.52 32.76 123.6 50.08"/><polygon class="cls-4" points="114.46 60.1 114.38 56.85 115.16 56.41 115.24 59.67 114.46 60.1"/><polygon class="cls-4" points="115.24 59.67 115.16 56.41 137.51 43.9 137.59 47.15 115.24 59.67"/><polygon class="cls-4" points="114.58 64.94 114.5 61.69 116.14 60.77 116.22 64.02 114.58 64.94"/><polygon class="cls-4" points="116.22 64.02 116.14 60.77 129.73 53.16 129.81 56.41 116.22 64.02"/><polygon class="cls-6" points="129.81 56.41 129.73 53.16 148.75 42.5 148.83 45.76 129.81 56.41"/><polygon class="cls-4" points="114.7 69.78 114.62 66.52 115.4 66.08 115.48 69.34 114.7 69.78"/><polygon class="cls-4" points="115.48 69.34 115.4 66.08 119.59 63.74 119.67 66.99 115.48 69.34"/><polygon class="cls-6" points="119.67 66.99 119.59 63.74 127.1 59.53 127.18 62.79 119.67 66.99"/><polygon class="cls-4" points="114.82 74.62 114.74 71.36 118.02 69.52 118.1 72.78 114.82 74.62"/><polygon class="cls-6" points="130.05 66.09 129.97 62.83 141.94 56.13 142.02 59.38 130.05 66.09"/><polygon class="cls-4" points="118.1 72.78 118.02 69.52 129.97 62.83 130.05 66.09 118.1 72.78"/><polygon class="cls-4" points="114.94 79.45 114.86 76.2 116.42 75.32 116.5 78.58 114.94 79.45"/><polygon class="cls-6" points="127.79 72.25 127.71 69 143.31 60.26 143.39 63.52 127.79 72.25"/><polygon class="cls-4" points="116.5 78.58 116.42 75.32 127.71 69 127.79 72.25 116.5 78.58"/></g></g></svg>